<mxfile host="app.diagrams.net" modified="2023-07-05T00:21:34.103Z" agent="Mozilla/5.0 (Macintosh; Intel Mac OS X 10_15_7) AppleWebKit/537.36 (KHTML, like Gecko) Chrome/114.0.0.0 Safari/537.36" etag="3pa7AsnZNxYMxVSsjpOe" version="21.5.2" type="github">
  <diagram name="LOGIN FLOW for super admin first time setup without integration â€“ release 1 " id="80inhVh5_irwirnTcTAM">
    <mxGraphModel dx="954" dy="616" grid="1" gridSize="10" guides="1" tooltips="1" connect="1" arrows="1" fold="1" page="1" pageScale="1" pageWidth="3300" pageHeight="4681" math="0" shadow="0">
      <root>
        <mxCell id="0" />
        <mxCell id="1" parent="0" />
        <mxCell id="_mg8mWTz7UV3ZVshJMJ1-1" value="" style="shape=image;verticalLabelPosition=bottom;labelBackgroundColor=default;verticalAlign=top;aspect=fixed;imageAspect=0;image=data:image/png,iVBORw0KGgoAAAANSUhEUgAAA1kAAAG+CAYAAABh384gAAAYTmlDQ1BJQ0MgUHJvZmlsZQAAWIWVeQk4lV3X/77PfI75HPM8z2Se53meZxKO6ZjiGEOJJGOiQkglGSuVQiUiDUoZekiSSIZKoaJC9d2Gep73ef/X/7u+fV373r+z9tprrb3WHu51bgC4qnwjI8MQjACER8RQHUwN+N3cPfixswAN6AAGaAJ+X3J0pL6dnRWAy+/2P8vKMIA22qcyG7L+u///W5j8A6LJAEB2MPbzjyaHw/gqAKhyciQ1BgDMBl0oPiZyA8MVMFNhA2GcuYGDtnD5Bvbbwpc2eZwcDGHcDQCO1teXGgQAfT9M548jB8Ey6BfhPmKEPyUCABYUjHXCw3f7A8BlBPOIwzyRMN6Yh5rfP+QE/YdMvz8yfX2D/uCtuWwWnBElOjLMd8//0R3/ewkPi/2tQxSutMFUM4eNOcN+GwndbbmBaWE8H+FnYwtjIoy/Ufw3+WGMIATHmjlv8SO4ydGGsM8AK4zl/H2NLGHMDWOTiDAbq226XyDFxBzG8ApBJFBizJ1gzA7jzIBoY8dtntPU3Q7buhDNgVRD/W36A1/qpt4NXeOxoc762/I/BQeYb8tH0icGO7nCmABj4TiKiw2M6WEsGx3qaLnNo5UYbGjzm4ca67BhvzCMHQIiTA225CPjAqkmDtv82eHRv+eLPB1MMbfZxldigp3MtvyD7Cb7btoPzwXZHxCh7/xbTkC0m9XvufgHGBlvzR05FxDh7Lgt51tkjIHD1lgUITLMbpsfJRgQZrpBF4SxUnSc4/ZYlEsMvCC35KMCI2PsnLbsRCWG+FrYbdmDOgKsgCEwAvwgFq5+YDcIAZQn8y3z8K+tHhPgC6ggCAQAmW3K7xGumz0R8NMRJIIPMAoA0X/GGWz2BoA4mP7jD3XrKQMCN3vjNkeEghkYhwNLEAb/jt0cFfFHmwt4A1Mo/6XdF65k2N4wuG70/7/pv6l/U/RhitU2Jfa3Rn6G35wYY4wRxgxjgpFAcaJ0UJooK/ipB1cFlBpK/fc8/uZHz6AH0K/RQ+gJ9PNdlDTqv6y0BhOwfJNtX/j90xcoUVimMsoApQ1LhyWjWFGcQAalBOvRR+nCmpVhquG23Rte4f+X7P+YwT+isc2Hl8Mj8Gx4Pbz4v0fSS9Ir/5Gy4et/+mfLVr8//jb80/Nv/Yb/8L4/3Fr+mxOZiWxC3kd2InuQbcgWwI/sQLYie5G3NvCf1fVmc3X91uawaU8oLIfyX/p+R3bDk9FyDXJv5da3+mICEjbOaGC4O3IPlRIUHMOvD98IAfzmEWRZaX4FOQVFADbul63j67PD5r0Bsfb9TSMfBEAVPp/xq3/Twj8DcAne+/zWf9NEvOHthwGgdoYcS43boqE2Hmj4lGCAdxoH4AVCQByejwJQge8xPWAMLIAtcALuwBu2Phhe51QQD5JBKsgAOeAIOA5KwSlwFtSCC+AKaAFtoBPcA49APxgCL+DVMw3eg0WwAtYgCMJCdBAJ4oD4IBFIClKA1CAdyBiyghwgd8gHCoIioFgoGToA5UCFUCl0BqqDLkPXoU6oBxqAnkOT0FvoE7SKQCJoEcwIHoQoYgdCDaGPsEQ4IXYighBRiEREOuIwogRRiTiPaEZ0Ih4hhhATiPeIZSRA0iBZkQJIGaQa0hBpi/RABiKpyH3IbGQRshJ5EXkDjvNT5ARyHvkdhUGRUPwoGXgFm6GcUWRUFGofKhdViqpFNaO6UU9Rk6hF1E80HZobLYXWQJuj3dBB6Hh0BroIXY2+hr4L76Vp9AoGg2HFiGFU4b3ojgnBJGFyMScxjZjbmAHMFGYZi8VyYKWw2lhbrC82BpuBPYE9j+3ADmKnsd9wNDg+nALOBOeBi8Cl4Ypw9bh23CBuFreGZ8SL4DXwtnh//B58Pr4KfwPfh5/GrxGYCGIEbYITIYSQSighXCTcJYwRPtPQ0AjSqNPY01Bo9tOU0FyieUAzSfOdlkgrSWtI60UbS3uYtob2Nu1z2s90dHSidHp0HnQxdIfp6uju0I3TfaMn0cvSm9P706fQl9E30w/Sf2TAM4gw6DN4MyQyFDE0MfQxzDPiGUUZDRl9GfcxljFeZ3zGuMxEYpJnsmUKZ8plqmfqYZojYomiRGOiPzGdeJZ4hzhFQpKESIYkMukAqYp0lzTNjGEWYzZnDmHOYb7A/IR5kYXIosTiwpLAUsZyi2WCFckqymrOGsaaz3qFdZh1lY2HTZ8tgC2L7SLbINtXdi52PfYA9mz2RvYh9lUOfg5jjlCOAo4WjpecKE5JTnvOeM4Kzruc81zMXJpcZK5sritco9wIbkluB+4k7rPcvdzLPLw8pjyRPCd47vDM87Ly6vGG8B7jbed9y0fi0+Gj8B3j6+B7x8/Cr88fxl/C382/KMAtYCYQK3BG4InAmqCYoLNgmmCj4EshgpCaUKDQMaEuoUVhPmFr4WThBuFREbyImkiwSLHIfZGvomKirqKHRFtE58TYxczFEsUaxMbE6cR1xaPEK8X/ksBIqEmESpyU6JdESCpLBkuWSfZJIaRUpChSJ6UGpNHS6tIR0pXSz2RoZfRl4mQaZCZlWWWtZNNkW2Q/7hDe4bGjYMf9HT/llOXC5KrkXsgT5S3k0+RvyH9SkFQgK5Qp/KVIp2iimKLYqrikJKUUoFShNKJMUrZWPqTcpfxDRVWFqnJR5a2qsKqParnqMzVmNTu1XLUH6mh1A/UU9Tb17xoqGjEaVzQWNGU0QzXrNee0xLQCtKq0prQFtX21z2hP6PDr+Oic1pnQFdD11a3Ufa0npOevV603qy+hH6J/Xv+jgZwB1eCawVdDDcO9hreNkEamRtlGT4yJxs7GpcbjJoImQSYNJoumyqZJprfN0GaWZgVmz8x5zMnmdeaLFqoWey26LWktHS1LLV9bSVpRrW5YI6wtrI9aj9mI2ETYtNgCW3Pbo7Yv7cTsouxu2mPs7ezL7Gcc5B2SHe47khx3OdY7rjgZOOU7vXAWd4517nJhcPFyqXP56mrkWug64bbDba/bI3dOd4p7qwfWw8Wj2mPZ09jzuOe0l7JXhtfwTrGdCTt7vDm9w7xv7WLY5buryQft4+pT77Pua+tb6bvsZ+5X7rdINiQXk9/76/kf838boB1QGDAbqB1YGDgXpB10NOhtsG5wUfA8xZBSSlkKMQs5FfI11Da0JvRXmGtYYzgu3Cf8egQxIjSiezfv7oTdA5FSkRmRE1EaUcejFqmW1OpoKHpndGsMM/wi3xsrHnswdjJOJ64s7lu8S3xTAlNCRELvHsk9WXtmE00SzyWhkshJXckCyanJk3v1957ZB+3z29eVIpSSnjK933R/bSohNTT1cZpcWmHalwOuB26k86TvT586aHqwIYM+g5rx7JDmoVOZqExK5pMsxawTWT+z/bMf5sjlFOWs55JzH+bJ55Xk/TocePhJvkp+xRHMkYgjwwW6BbWFTIWJhVNHrY82H+M/ln3sy/Fdx3uKlIpOFROKY4snSqxKWk8InzhyYr00uHSozKCssZy7PKv860n/k4MVehUXT/Gcyjm1eppyeuSM6ZnmStHKorOYs3FnZ6pcqu6fUztXV81ZnVP9oyaiZqLWoba7TrWurp67Pr8B0RDb8Pa81/n+C0YXWi/KXDzTyNqYcwlcir307rLP5eErlle6mtSaLl4VuVp+jXQtuxlq3tO82BLcMtHq3jpw3eJ61w3NG9duyt6saRNoK7vFciu/ndCe3v6rI7Fj+Xbk7fnOoM6prl1dL+643fmr2777yV3Luw/umdy7c1//fscD7QdtPRo91x+qPWx5pPKouVe599pj5cfXnqg8ae5T7WvtV++/MaA10D6oO9j51Ojpvb/M/3o0ZDM0MOw8PPLM69nEiP/I3POw50ujcaNrL/aPoceyXzK+LBrnHq98JfGqcUJl4tak0WTva8fXL6bIU+/fRL9Zn06foZspmuWbrZtTmGt7a/K2/53nu+n3ke/X5jM+MH0o/yj+8eqC3kLvotvi9BJ16den3M8cn2u+KH3pWrZbHl8JX1n7mv2N41vtd7Xv91ddV2fX4tex6yU/JH7c+Gn5c+xX+K9fkb5U381XASRcEYGBAHyqAYDOHQASnJ8RPLfyv+2ChF8+EHDrAslC7xHp8I3ah8pAm2CQmEfYElwE3oogQYOlmacdpGuhr2GoZmxkaiV2kR4x97OMsL5im2N/z7HEucr1gwfBi+Uj8NMJEAWJQqzC7CJsouxi3OI8EvyS/FKC0sIyorJiO6Tl5OQVFVQUNZR0lY1VzFXN1UzUTTRMNA219LW1dDR0lfRk9UUNeAyZjQhGv4w/m8yYPjfrNW+zqLU8apViHWLjZmtsp2wv5sDlyOiEc0a6QK4IN5Q73oPRk8NLeKeMt8QuYR8+X04/FjLJnxhACmQN4goWpEiHqIaahLmEUyKSdxdGVkWdppZEF8TkxmbFZccfTijZU5vYnvRiL9gnnbJr/4nUFwcE03cf7DyEyRTKUsg2yHHMDcxLPFyQX3vkdsFo4fIxpuMyRRbFgSUHTlSUXi8bLH9zcvkU9jTHGclKrbO2VX7nYqoP1hTV1tZdr3/YMHr+3YXvjbhLbJfFr+g2uV+NupbVfLKlsbXjes+Nvpv9bY9udbVf7ii7ndK5q0vjDvHOTPf1u/X3yu/nPEjo8Xto/ki2l753/vHdJ+V9kf0GA6SBqcErT1P/sh8SGUYNv33WO9L4vHA05oXLmNpLzpfr4+OvOifOTWa93j3l/EZrWhheZSuzf81dfVv8LuV92Dz5A/lj5ELO4rWlhc96X86skL6WfJdafbKe8lPj169/xF8BOYcqRFtiWDAvsU24XHwQwYhGkpaBdp1uln6EYYTxFdMb4gfSZ+YVlh+sa2w/2H9y/OBc4frMvcAzwzvGN8h/V+C6YLVQjnCYiJWopBhe7J14j0SdZLYURdpSRkaWTnZhx4DcVflihWRFspK9soGKgqqAGlHtl/pHjTHNHq1m7UqdXN14PR99CwMFQ04jhNFb4ycml0wLzKLNnSxULNks16xeWd+xqbctsEuyD3RwdNR3kncWcCG5Yl1X3d67j3n0et7yatx52vvorkM+yb5UPwrZ198jwCnQPsgm2JJiGWIWqhkmGy4QwbKbJhIRuR71jfo9+kcsOo4YL5SgsccpMTqpKLlt70wKzX6+VJk07QM26X4H4zPyDlVndmSNZn/NZc5TOGyfH3Ekr6Ch8MHRN8d+FXEWK5fYnQgtPVh2qrz1ZH/F3KmfZ5grJc5qV9mdI1fH1hyqLYHPud6GhQvEi4qNjpeiLudfaWjqvjp27VMLppXjuuQNjZsWbW63AttjOlJup3Ye6Dp4J6P70N3Me9n3cx/k9eQ9zHuU15v7OOdJVt+h/vSB1MG9T+P+ihraPRz5LGYk6fnB0aMvKseaXt4bf/7qwyR4TZwSfCM/rTNjPus3d/rth/fK80kf2j/+XNRcivt08fObZfYVy68p35q+z65xrzv8yP7ZvR1/Y4Q+cgfyI6oTfQjjiBXHLuGu4zMIDjTcNOO0Z+nC6dUZEAydjOlMFkQGYj/pCLMtCwPLY9ZsNhN2iL2VI4JTiHOEK4dbh/sDTxmvGe8Xvgp+M/6PAscENQTHhPYK8wu3i3iLrIuWiCmJ9YoHiK9LHJWUkuyQcpSakU6VEZEZkc3dYbDji1yNvKcCnUKHYqSSgNKgcpqKgsqkar6attoH9TINc41lzbNa9lo/tRt03HWxutf0yPpE/dsGkYb8hv1GacZKxrMmpaa28HvHTfMoCymLN5YVVh7WrNZPbQptHexIdsP2Jxy8HYUd3zlddk50MXZlcB11q3aP9jDwpPUc9jq1M9hbwXtt112fAl8vPwm/FXK3/9EA30DFIFTQcHA9JSXEKVQ6DB32KvxGRMnu+EjXKA0qbzQqej5mKLYzrjG+IiF/T2pifFJosv/enfvcUpz2O6Tap9kfcEh3OuiesfNQQGZoVnR2Sk5mbmFexeG6/OYjdwoGCsePfjyOKpIo9io5cuJu6Vq57Em/iuOnHp5er1Q4G1BVeq6vBlWrVRdf39jw/oLkxZDG+ksLV1Sa9l/tbeZoCWvtvsF3M6XtdbtVR1unfNf5bqm7l+8bPBh9mNDL97i/L2/A6anoEBh+P/Jm9N1L8EpkctdU/Qx6LvE9+FC1SP6su6L23Xm9ZCP+W/8DbhSMCgDHDwGw8T+PQx0AuecBENsDABuce9rRAeCkDhACpgBa7gKQhfaf+wOCE08CIAEeIAnUgBmcX4bBOWUxaAQ9YAr8gNghZcgRioaOQ63QSzjnk0a4IFIRjYhxJAPSABmPvICcgbM0L1QZ6gWcifmgz6E/YFQwqZgnWB5sOLYDR8JRcJ14TnwsfpCgSCgmrNOQaR7TqtPW0rHT5dIj6JPovzLEMqwwJjJBTNlEVmIVSY3UzxzCgmU5x2rMOsOWyS7F3s8Rw8nB2c7lz03DfYXHgxfJe4HPE84IBgTyBW2FmISeCheLeIoKiM6InRePltCQhCR7pAqkPeHVuSg7uKNNrlq+UGGfIkXJUVlDhU8VUp1Qa1M/phGiqa1FrzWmXacTo6urh9Mb0G8yuGrYYnTDuN3kjmmPWZ/5sMW45azVkvWaLc6O1V7UQc3RyonsnOxS4truNudB8tT3itxZ6T3kQ/DV90sit/p/DVQLSgruDCGEOodVhS/vNousiFqI1orJiR2PV0o4smcpyTX53j7tlPZUy7Sp9KwM7UyQNZBzKa88v7DA7Cjy2N2igpKAUsNy6QrB0yKVSlU21VG1ZfWPLoBG1cs2Te7XgluSrx+/eeXWYMdKF2+32b2YB6cfPun90SczsPPp4aHbI6RR8tiF8flJ7im1ab1Z+bf0757NH/64Y6FzyexT9xeF5dKV1W/238+tLq1r/Ej5eXvz/NiKPxGOvwRQBSbAFYSAfeAYaADdYBx8g0iQHGQDRUBHoCboOQIgJOAsPw1xGfEazuOtkOnIDuQaSht1ANWLZkcHopsxeIw3phnLiA3DPsJJ4/Jxy3gv/D2CLKGYBkkTRTNJ60z7kM6Qrp1ei/4WnMU+YLRnHIfz1F/EYyRZ0mPmCDjzbGX1ZaNha2UP5GDluM+5h0uaa5K7mMeWF8fbxbef30AAI/BYsEjIV1hWeF2kV7RCLErcWIJL4pPkQ6mz0ikynrKaOyTk2OXx8usKC4pTSs+UH6rcVD2vVqp+SIOq6allqC2pw6izrDuq167faHDZsMmoxfimSYdpt9lD836LZ5avrGatl2zW7HD2rA5ijupO1s7+LntdS92uu496/PAS3GnhHbPrtE+fH0RW8Y8IqAucCRalhIRcDl0NN40o2j0XpUXdG90Ri4qzii9OmElUTzqcPLvPOKU2lT5tz4FZ+Dzpz7TIup9jltt72CF/oiDlKO+x20WBJfQnWsv8T5Iq7p3eW6ly9tO5yzWxdVoNmPNDF89dSr7idVWlmb5l6vrVmwdu2XSw357squum3tN6gO0ZflT3eH+f14DOU5EhpuEHI87Pp18kvmQevzLhNLk+VTvtPssw1/Muc97yI+PCs6XTn0OWVb4ivvWtlq0H/VTcjj8SYADt5gkgDlTgFeAGwsFBcArcBKPw/heELKBYqAoaRtAgjOCd34XEIe2Rp5CfUBaoGjQeTUW/wjjBu90GO4Qj477jiwjqhGmaE7R6tGN0SfT89D0M8YySjFNMp4h+JAnSV+b7LBWsSWye7HocUpzsXDTcCO51nlXedX4ggIXfQHmEZUW0RR3EgsT3S5yQvAbn3YuyjDsU5Fzl9ylUKfYpralIqLqrFaoPajJruWtX6SzoaevnGbwyUjTOMZk00zIvsvhkZWd9wZbWLsz+oaOkU47zO1cLt3oPvCfF67636K6DPtN+huTqAGSgf9AdimhIRuhcuFVEYyRLVAJ1IsYo9mI8e8K+Pe+T3OB9qpJSk8qRdjgddTA541OmR9bl7F+5Tnk1h1ePOBZcPEo4Rjl+r1iqJPfEQplr+a0K0VMF8Nnvf7b3nGZ1TS1TXWL9zHnHC22NopfyL680eV+91yzTcqR18Yb9zYu3CO2BHe2dxK6AO813Uffs7pc9mHoo8YjSW/14so+z337g4ODVp6+HCMNyzxxGqM8Pj9a9uDM29HJmfOnV+iT0GjuFeYOZBtOrMx9mx+cev219V/k+cz7ig/VHqQXswqvF1qWsTx6fJT5/+tK2nLZi9BXztftbynfN70ur59Y81gnrzT/IP+l+XvnlvhH/rW9Hm/cHIwCnuTbQwKVPH//93Wbru9I/cpN/t2DzdtkoG7fLZgvfNOB/AEq40O8Tw7pLAAAAOGVYSWZNTQAqAAAACAABh2kABAAAAAEAAAAaAAAAAAACoAIABAAAAAEAAANZoAMABAAAAAEAAAG+AAAAAMWgndEAAEAASURBVHgB7J0HnFxV2cbvndlNJUDoRSAEQpGS0KQqYKMkoXdpglSxo4CgRBAVFPCzoCBCQEVASiIdKUGKIp9SpCmKCJ8UpZOEZMvM9zyz98TLMDM7szu7O7Pzf3+/Z8+5p91z/3dm57z3nHtvFGEQgAAEIAABCEAAAhCAAAQgAAEIQAACEIAABCAAAQhAAAIQgAAEIAABCEAAAhCAAAQgAAEIQAACEIAABCAAgZoIjFXpsxM5jkEAAhCAAAQgAAEIQAACEIBAHwnsonr/lPKJHJ8uYRCAAAQgAAEIQAACEIAABCBQA4H3qOw1UnCuikPnrVxDexSFAAQgAAEIQAACEIAABCDQ0gS8PDAnFTtX6e03lf9pKSthEIAABCAAAQhAAAIQgAAEIFBEYBNt3yLtm6RvrfBRKe1YlYr/r8psnNQhgAAEIAABCEAAAhCAAAQg0PIEFhOB70pdUnCiblZ8otQunSTNl0JeqdB1z5XcFgYBCEAAAhCAAAQgAAEIQKBlCeymI39OKuU42bE6UbKjZYfLjlepcuk0t+U2MQhAAAIQgAAEIAABCEAAAi1HYKqOuFNKO0ml4l4y6KWDtv2kF6RS5UKa23TbGAQgAAEIQAACEIAABCAAgZYjMFlH/HspOEjlQj8E43xpvLSk9COp1IMx3JbbxCAAAQhAAAIQgAAEIAABCLQcgc/piCdJGelY6XWpnJMV0l9SmQMk25bSI5LzXNdtuC236bYxCEAAAhCAAAQgAAEIQAACLUVglo52gfRVaYS0onSlFByqSuGtKreG1CZ9QnJdt+G23KbbxiAAAQhAAAIQgAAEIAABCLQUATtCwZF6QvFtk6PfSeE/UnmhTHH4mMoskdRxXbcRyuBkJWAIIAABCEAAAhCAAAQgAIHWIZB2soJzdJEOf2lpjHSmVOrBGE77VlLGZV0n1A8hTpagYBCAAAQgAAEIQAACEIBAaxEo5WTZSfqPdEiCYgOF90nBeXLcaTaXcdmQlw5xskwIgwAEIAABCEAAAhCAAARaikA5Jys4S3eIxlpSLB2dyHGnOS+UKxXiZAkQBgEIQAACEIAABCAAAQi0FoHenCw7T36IxanSyESOO+1tKT3DVexo4WQJEAYBCEAAAhCAAAQgAAEItBaBapys4DztLDSWt2dLq0tHJNuhTDrEyRIcDAIQgAAEhgcBP0oXgwAEIAABCAwkgc+o8WcGcge0DQEIQAACEGgkAn4JJAYBCEAAAhAYaAL7awenDvROaB8CEIAABCDQCASYyWqEs0AfIAABCAxvAr/W4YUnDA7vI+XoIAABCEAAAiLATBYfAwhAAAIQGGgCOFgDTZj2IQABCECgoQjgZDXU6aAzEIAABCAAAQhAAAIQgECzE8DJavYzSP8hAAEIDB6BE7SrOQOwO7fptjEIQAACEIAABCAAAQhAAAItSeBQHfXLUvoR7MXx9CPci/PCtttwWxgEIAABCEAAAhCAAAQgAIGWJ7CMCFwsBYepOOzNyXJdt4FBAAIQgAAEIAABCEAAAhCAQIrAdoo/KVXrZLms62AQgAAEIAABCEAAAhCAAAQgUIbASKWfKi2QgrNVPJPlPJdxWQwCEIAABCAAAQhAAAIQgAAEqiCwlsrcIdnRSjtZTnMeBgEIQAACEGgJAnFLHCUHCQEIQAACg0ngYO3sqWSHkxReOpg7Z18QgAAEIAABCEAAAhCAAAQgAAEIQAACEIAABCAAAQhAAAIQgAAEIAABCEAAAhCAAAQgAAEIQAACEIAABCAAAQhAAAIQgAAEIAABCEAAAhCAAAQgAAEIQAACEIAABCAAAQhAAAIQgAAEIAABCEAAAhCAAAQgAAEIQAACEIAABCAAAQhAAAIQgAAEIAABCEAAAhCAAAQgAAEIQAACEIAABCAAAQhAAAIQgAAEIAABCEAAAhCAwDAnsIyObz0pMwTHmdU+J0mr9XH/k1VvhHSgVM58XGtLK5YrUGW6+7p+lWUpBgEIQAACEOgzgaH4Qe5zZ6kIAQhAAALvInCoUi6TDpFmSINt62qHv5Q+K90n2dkrti2UsHdxYrK9g0I7WXuVybdjdKN0rHSutLHUmx2qAhuUKDRGaVuXSCcJAhCAAAQgAAEIQAACEIDAIgKPKjZy0VYUbaf4tdKvJc/aHCT9XLpdOkO6SfqcNFpymWukn0m+6PY96XLpK5LtIskO3HXS0tLFku046X2FWM8+fpTEN1V4hbSGZMfL9ezsXCU9IO0oFe/jfKUtJs2SXPZKyc5UsF0V+U7YSMJvK3Q/XTeW0v1cQdsPSTdLG0vu/2zJTpyPOThq3s/1kp1Dm9t030+QXM7175CWkDAIQAACEIAABCAAAQhAoEUI2Bn4Q9Gx3qVtOy2TpUulz0uHSZtLv5LslNwtuYxnnrz9E8lO0/LSNlJo83eKLy7ZOdtWslOysuR9tEu29aXgZI1S/F7pPMmO3PGSHaGpUnBmivdxm/LcFztZH5NcN+3YuN7hUjA7ThcmGy7r/hb381SlvV/ysa0mTZfsTIb9+Fhc1/n3SFOkW6Wdpb9J3v8fJTueGAQgAAEIQKBmAvyA1IyMChCAAAQahsDb6sm4RO6Ul93Z0ZkvzZWCI/SC4m9KDvNSh2R7Q/K2y4+U7Oj4vqecZJsnuZ7ltj3j9Q3pMalTKrYPKOHPkp2Zt6RHpHMlW1ZyG8X7cF6wXyjyG8kzSC5ve1ratBDr+bOUgteSbe+jTSrup4/J9deWLpDGJtsKFllgsUAp7q95dUlHSd3Sc1LgoCgGAQhAAAIQqJ6Af5wwCEAAAhBoXgJfVdftlNgpeFCyo+JlenaaZkjvk4rNTohtM+kqaRnpRMm/CV7S5xkyWygXQi+788zUTs5MzI7Jh6UrJDtRx0jrSqdIf5Vukf4inZFsV9rHQSqzpfSKZEfHdoPk9OslH5P7ubE0U7LDdbIU+hfCJ5V2eiKX8UxaaC+USYeeuRsj7SbZebxfCvmKYhCAAAQgAAEIQAACEIBAqxHwsjc7IMEcDysVnBcspDkMS+c88xXM6em6oXxow3l2QKoxzyTZcQnm/bi9cvsI+3K/SpkduNAP5xf322np/LBv13NfQvshDGXDtut7xqtUuvMwCEAAAhCAAAQgAAEIQAACFQmEGaWKhYoyl9X2B4rS2IQABCAAAQhAAAIQgAAEIAABCEAAAhCAAAQgAAEIQAACEIAABCAAAQhAAAIQgAAEIAABCEAAAhCAAAQgAAEIQAACEIAABCAAAQhAAAIQgAAEIAABCEAAAhCAAAQgAAEIQAACEIAABCAAAQhAYFgTmD1l6t6zNtrpvcP6IDk4CEAAAhCAQBGB9PtBirLYhAAEIAABCPSPQD6O9813t/nlxBgEIAABCECgZQjgZLXMqeZAIQABCAw+gTiK43ycyw/+ntkjBCAAAQhAYOgI4GQNHXv2DAEIQGDYE8jn83EminGyhv2Z5gAhAAEIQCBNACcrTYM4BCAAAQjUm4BmsnCy6g2V9iAAAQhAoLEJ4GQ19vmhdxCAAASamkBhuWDUzUxWU59FOg8BCEAAArUSwMmqlRjlIQABCECgagL5OJ/J5DK5qitQEAIQgAAEIDAMCOBkDYOTyCFAAAIQaFQCXiuY48EXjXp66BcEIAABCAwQAZysAQJLsxCAAAQgEEVaJxhnuSeLjwIEIAABCLQYAZysFjvhHC4EIACBwSWgBYM8XXBwkbM3CEAAAhAYcgI4WUN+CugABCAAgeFLINZMFk8XHL7nlyODAAQgAIHSBHCySnMhFQIQgAAE6kEg1lrBbp4uWA+UtAEBCEAAAs1DACerec4VPYUABJqHwGh1dZK0Yj+6vK/qju1j/RGqt760ZB/r161aPtLLiLknq248aQgCEIAABJqDAE5Wc5wnegkBCDQXgX3U3bOl70mn9bHru6peKSfrG0ofWaHNFZR3l/Qx6TJpjDR0VrghK8N7sobuDLBnCEAAAhAYAgJtQ7BPdgkBCECgFQjM1kH+UrpDOlM6T1pM+p30Q+kKqUuaJx0i/Vg6UjpCelAK9jlFNpH8rik7bgdJq0qfTrbHK5wpzZJsx0p27rxvmx21S6Sw7+8ofrE0SvKM27+ktaVjpE9IS0mrSSdIHdIp0uLSydIG0kel5aRzpfdLbsvH8FnJdYotE2dyvCermArbEIAABCAwrAkwkzWsTy8HBwEIDCGB/bXva6XzpQOk30t7SrtL46Rlku0FCjeV1pBsy0vOD3ahIt+XVpfsENkBszPmduZLdqC+LAVzuSfChsLifdvpWkdyG69Ids7s4E2VVpF+ILm946SnpFOlOdLO0rJJ3HUPlh6QDpT2lh6S3m2xHnzRrQcMYhCAAAQgAIEWIoCT1UInm0OFAAQGlcD12psdF8/0eCboNcn2tpSV3pDsfNhR8nZYWeAZprRdpo11pW7J5WwOPTPlGSTLDlGwpxWx02Zrl0rt23XeSvSCwrmSy9rcz9CnXRU/UXLfQv+eV9x9d/kbpI9KPs4wk6bof00+ljwsHnzxXyLEIAABCECgFQiEH81WOFaOEQIQgMBgErAT4+WAtqulX0jTpUcl520mXSUtIx0vefbJ5SZJt0th9qdD8W0kzzLZXM5tfUHyLNdY6e/SHyTbD6VfSTtJdrA+Lblc2Pebioe2i0NlFWbG7EB9RbIjt5rkB3jcJxVbpxIekJaU7Dy+y/K6Jysbc0/Wu8CQAAEIQAACEIAABCAAAQjURCBWaStt3h6ZJNh58cxP8ayVt0O99EoD3ztVvK2kgrmtUpZuO71vlw1thdBpLuNZs5WkEVIw79t5Lhv65rxQ92zFP+SEUjZryrQ7r50ybbtSeaRBAAIQgAAEhisBZrKG65nluCAAgaEkEGaI0n1w2sIkwfdh+T4oh2lLb6cfFlE8S5Te9lK/UpZuK71vlw1th9BpLnOR9Krk2bNgYV/FxxTq3qOCd4bCxaG8sjjHI9yLsbANAQhAAALDnABO1jA/wRweBCDQkAS8jPDmBuzZbX3o07WV6uT1MuJsF/dkVWJEHgQgAAEIDD8CYbnH8DsyjggCEIAABBqAQD6Wo1U8C9YA/aILEIAABCAAgYEjgJM1cGxpGQIQgEDLE5CHlenmPVkt/zkAAAQgAIFWI4CT1WpnnOOFAAQgMIgE8lE+zkY8XXAQkbMrCEAAAhBoAALck9UAJ4EuQAACw47AQToivz9qOelc6TnpFMmPVD9Z8gWuk6Rx0iPSWtK/pSOlo6TtJT/m3ds/lvykwLOkx6TmMr0oK9fFcsHmOmn0FgIQgAAE+kuAmaz+EqQ+BCAAgXcTWFZJcyQ7SQdLT0mnSnOknSU7V3aq/LJfv8h3b2l1yemfkS5NtjdVaNlRaz4HS50uvIw45sEXQoFBAAIQgEALEcDJaqGTzaFCAAKDSuB57e0NyS/2tTN1ouTVA2EFwYuK+5HuL0h+qa9nrsZI3ZKfPuiZqyekfaWvSrtJTWeFlxFHzGQ13YmjwxCAAAQg0C8C4ce+X41QGQIQgAAEKhLwO6tWk1aU7ktKhifuhdDJfifVvdL+UlZ6Ujpd8nJBv7+qCc1PF+SerCY8cXQZAhCAAAQgAAEIQAACDUVA7+BdZGHFwGilOD1shzJhO4Su6BktO1m2EYkKG832Z/aU6X+4esr0zZqt3/QXAhCAAAQg0B8CzGT1hx51IQABCJQmkJ6dyiVFPEtlC3khDPkhdJn5/pNYR4g0Y5jXTVltndyT1Yznjj5DAAIQgEDfCaSvnPa9FWpCAAIQgAAEShCIo3ymK5NNO5AlSpEEAQhAAAIQGF4EcLKG1/nkaCAAAQg0FIF8Po7b4q4wa9dQfaMzEIAABCAAgYEigJM1UGRpFwIQgAAERCAf52KeLshHAQIQgAAEWosATlZrnW+OFgIQgMCgEtDTPXi64KASZ2cQgAAEINAIBHCyGuEs0AcIQAACw5VAHMe5TpYLDtfTy3FBAAIQgEBpAjhZpbmQCgEIQAACdSCgm7F0TxbvyaoDSpqAAAQgAIEmIoCT1UQni65CAAIQaDoCevIF92Q13VmjwxCAAAQg0E8COFn9BEh1CEAAAhAoT0CvyZKTxXLB8oTIgQAEIACB4UgAJ2s4nlWOCQIQgECDEMjH+Uymu433ZDXI+aAbEIAABCAwOARwsgaHM3uBAAQg0JIE/HTBHPdkteS556AhAAEItDIBnKxWPvscOwQgAIEBJuCXEbfHnbyMeIA50zwEIAABCPSJwAdV60bJYV0NJ6uuOGkMAhCAAATeSSAfdzOT9U4kbEEAAhCAwFATWFEd+KV0u7RTEl6m0Ol1MZysumCkEQhAAAIQKEWA5YKlqJAGAQhAAAJDRKBN+/2c9Bdpv6I+7J+kf1Zhtiiv5k2crJqRUQECEIAABKomUHgZMcsFq+ZFQQhAAAIQGEgC26rxk6RxZXbi9HOlP0lblylTVTJOVlWYKAQBCEAAAn0h4JcRt7NcsC/oqAMBCEAAAvUhsKyauVj6jnS/tLb0Y6nSk283VP7dkuu5fs2Gk1UzMipAAAIQgEC1BOLCy4gz8rUwCEAAAhCAwKASsJ9zjOSlgYdKX5CelD4iOX1z6X+lcqYV74V6rn+0VJPfVFPhcj0gHQIQgAAEIFCKQD6KM5lsd6WrhaWqkQYBCEAAAhDoD4HNVNmzVudJ41MNraz4FdKt0puSHS07XK9J5cz1fyS5vU3LFSpOx8kqJsI2BCAAAQjUj0Ccj3MLmcmqH1BaggAEIACBXgisp/zfSJUcIs9m/Vk6TbpE8hJCLw2stPLC7d0muf1eDSerV0QUgAAEIACBvhLw0wW7M9lKP1p9bZp6EIAABCAAgVIEHlPieyXPWFWyEco8WXpc2lI6THq/9IhUytye23X7vRpOVq+IKAABCEAAAn0loOWC8Yh4IU5WXwFSDwIQgAAEaiVwiCpMlPyIds9Y+Z6qSjZBmbOl66TnpY0lP+bdywltrv9hye25Xbffq+Fk9YqIAhCAAAQg0GcCevAFM1l9pkdFCEAAAhConcC6qvJbaabkWSk/KdAzVvOlSjZNmZ6l+rLke7DWkY6UXN9LC2dKbtft92o4Wb0iogAEIAABCPSVQGG5YMxywb7yox4EIAABCPSJgJ8M6Bknz0J9QvqW5KV+nrGqZKOVeZp0uvSC9FPJ9d2O23O7VRlOVlWYKAQBCEAAAn0hkNfLiEdmWC7YF3bUgQAEIACBfhNYUi38UPqDtJy0m+QZq6elUub0qdKXpM0k13N9t1OT4WTVhIvCEIAABCBQI4G4awFPF6yRGcUhAAEIQKC+BDZRc7+X/BLi+yQ/IdAzVgslm0NvO/13ksu5vOv1yXCy+oSNShCAAAQgUA2BOB9lFma7eE9WNbAoAwEIQAACA0nAfs9R0l+l/aUZ0vrS95LQ2053vsv1y0/qV2XtHIMABCAAAQiUJZDX+vVRPMK9LB8yIAABCEBg0Aksoz1eJN0jjZU+k4Tedvqr0nNSvwwnq1/4qAwBCEAAApUIxFE+7sry4ItKjMiDAAQgAIEhIbCV9npesmeHntX6fBI+o7Bf1tav2lSGAAQgAAEIVCIQR3HXvDZNaGEQgAAEIACBhiZwp3p3br16yExWvUjSDgQgAAEIvIuAX0Y8KjMfJ+tdZEiAAAQgAIEGJLC0+vR9acv+9o2ZrP4SpD4EIAABCJQnoJcRd2WZySoPiBwIQAACEGgQAhurH09J4+vRH5yselCkDQhAAAIQKEnALyPuzOBklYRDIgQgAAEINBKBVerZGZYL1pMmbUEAAhCAwDsIeLngmOw8lgu+gwobEIAABCAw3AngZA33M8zxQQACEBhCAnGcz8ybO5r3ZA3hOWDXEIAABFqMgB9e8fMBOma3W9XDMXCyBugM0CwEIAABCESRbsmKx2XfZCaLDwMEIAABCAwWgZe0o4Ok7aTHpHqY29lOcrtuv1fDyeoVEQUgAAEIQKAfBOKFbe04Wf0ASFUIQAACEOgTgbtUa4r0JWlun1roqef6bsftVW04WVWjoiAEIAABCNRKwC8jXpAdgZNVKzjKQwACEIBAPQh0qZFvS+tKV9XYoMu7nuu7nZoMJ6smXBSGAAQgAIGaCOhlxG+/PBInqyZoFIYABCAAgToT+D+1t7e0g+THtFcy57ucy7tenwwnq0/YqAQBCEAAAtUQ8NMFx2dexsmqBhZlIAABCEBgoAncqh1sIH1FertoZ952uvNdrl+Gk9UvfFSGAAQgAIFKBLxccF4bM1mVGJEHAQhAAAKDSmCh9vZ1aT3ppmTPDr3tdOf32/SeSAwCEIAABCBQPwJXbTB9nba26KP5XC6fycTnRPno+Fyc78h3R3fv8cgNj9ZvT7QEAQhAAAIQaEwCbY3ZLXoFAQhAAALNSmBhlHupPYpPjzOZxQvHEEff1bKJBV2dnROb9ZjoNwQgAAEIQKAWAiwXrIUWZSEAAQhAoFcCH/vzDa/p7cPfe0fBfPzjPZ+45YV3pLEBAQhAAAIQGKYEcLKG6YnlsCAAAQgMJYHOjs5z8/noLfdBT714e2Fn95lD2R/2DQEIQAACEBhMAjhZg0mbfUEAAvUkMEKNLZ806PtL39OHxldRnaX7UG9f1RlbRb39VMb9bDnb57FbXtVDL37gA49z0Xn7PHbjiy0HgQOGAAQgAIGWJYCT1bKnngOHQNMTWEdH4Eet2kZLFxZitf3xk4RWqq1KofSu+luNk2VnbFSq/XNS8b5Ex6vSKX2pOBR15s2Pz9Fs1r+78wvPGor9s08IQAACEIDAUBHAyRoq8uwXAhAYCAJLqtHLpV9Idry+LV0hnZBs36zwDmkJybas5IcznChdLO0iBfucIj+XLpU8U3a+dIlkx8w2TvK+7Pik96PNQtnZCv2ujWB2zA6QviVNlPwm+euk6VKwNRT5peR01z1I+pl0i7SjdLR0WBJur/BK6WrJs3Fejvcr6UCpIeyAv173chR3bb/HI7f+uyE6RCcgAAEIQAACEIAABCAAgYoENlRuYTmawjGSHah1Jb9A0MsApyTxnRX+TbJj9UcpfXHp89reSXJdOzFpG6eNzaW7peUk13Wbtsuk+6UtpOL9bKI0z6p5P/dKduKC3ZZEfqxwM2m09PskzcF5kp274yU7de7f4dJqkve5gmTHz+a295Dc1pGS898nYRCAAAQgAAEIDDGB9GBjiLvC7iEAAQjUROBNlV4xqWHn43XpCelU6QppLWmu1CUdJXVLz0l68N277GNK+bB0WirHTsu6kut5JstL/74q7SbZ3Nba0mJSej92nN6QvB/3MW3ZZMOOl/u7UNJzIRaZ23pLekQ6N0l9XqHba0+2w//tUdqeL10jXZ/kPZOEBBCAAAQgAAEIDCGB8GM9hF1g1xCAAAT6ROAZ1bKT4WV3Xur3P9IW0hGSnZffSZ7hslO0i2RLOzQ9KT1/vdzP92a9mErsUHwbybNi46XTJTs2r0pu53PSYdJrUno/D2h7S+kX0jpSep/u13eki6SfSrOSUEHBfBz7S7tLrlts3veG0jGS2zhasvO3jJTejzYxCEAAAhCAAAQgAAEIQAACfSNgx8czTcHs8IQZI6eNlUJ+8YWlkO7yrldsnpUKdUYobtlCmuuHNtL7cRnPPIVy3rZ52/21eZ9hdqqQkPxJ9yW07azQluuEeu7PSGfKQn7PFn8hAAEIQAACEIAABCAAAQhAAAIQgAAEIAABCEAAAhDoOwE/Dc3CIAABCEAAAhCAAAQgAAEIQKCPBDZVvculNyTfP2I57jQ/kQ2DAASGhkD4PjZbODS02CsEIAABCEAAAhBoAAK+V+QsyU9bKzeIc57LcF+JIGBVE/DnxU/4W7HqGq1R8L06zG9Jq0mrS1tLkyQ/JMP3jhVbue9lo6cXHwfbEIAABCAAAQhAoGUI/EBHWu1gzWUxCFRDwA+IuFn6H8mzoRtLrWSH6mA3KHPAlyrdT1r0kwinSp+XdpIuk5aTiq3a72ejlSs+DrYhAAEIQAACNRO4eMJ2oy5b/0PL11yxQoW2CnkDleUf+D2lVaVnpaulf0v1sIFsux79a8U2dtZBf7KGA3fZGxPVUI2iLUhgmo75Uen41LF/W3E/ct3LUI+Wvin53r+J0gOSl6WeI70knST56Xx+ybDfSXW+NFb6mfS0dKI0RvILhP8jvSVdJ82UDpFsni1aSvJs0bGS2ztFWlw6WbITtIPkmbbfS3YE/bJk78999f/BP0lnSsX2PSX4f9pj0nelUyUfq+u6/GelF5PwcIXhuH2hYjupW3J8ZakWSz/RsJZ6g1XWjh4GAQhAAAIQqBuBpZZc7CgtqfJvuX9b62KZurRSfSO7q+jfpfMkD2Acetvp/bWBbLu/fWvl+h4Y1mp9qVPrPihfnoAdBQ/+15WWLV9syHP8z/CJVC/swIyX9pPsYHiJnI/DjoYv5rwuHSl9TBon+eLOrpKdNb8Ty07XhdIBkvNflqZLe0n3SHZktpLscAVz+/4/9iNpF+kpyZ/fOZIvMJjfHdKXpbUkp+0hTZEmS5dIR0gTJO/HTmCwMxRx390HXxCbINkmSPOlayWXGSOlj3sJbf+v5B+KxaS6XplTexgEIAABCEBg2BC48j1bjtbLWE6M4/jIK9fbeYV6HdhgOlnrqdOXS/7RT5u3ne78vtpAtt3XPlGv5wr6+/oAwnVqvfreh91QJUXA71o6TrpL8gD+n9Ljkh2Rf0nnSe+VGsmeVmc2TXVoKcVfS7Y96xRm6l9Q3NsO56bSQ9mFSrMDdIE0VvIyRJvLe9ZkgWQeZvRJyTNdaXteG29K7dKuki8ged/p/Ts/tNehuP/vuS9d0lGS095OQgWFGbFZCj0DlpPsNI6QbKN6gkLf3FfPmoVjSR93UowAAhCAAAQgAIFyBNqXXepYvfJyhTiKRrePyHyxXLla0wfTyfqMOhcGCcX9dLrz+2oD2XZf+0S9KFqnHxD6U7cfu23Jqh/VUXsG5vvSB6TgZChasJX09xjpz5LLjJYawW5QJ5aRrpd+I9nR2FiaKXkW7h7JTpKtOHTawdLV0l8lO5Z20qZKdmhsxXUuU9qG0sPOTKy4jB2y1SRzDHlJ0UWB0/8gjZF2kzwD9rzk4zFjm8vYSdtRMm87aUtIV0g+Nuc/KZ0uvSqVOu6w/xCqWNk+OQ+DAAQgAAEItBSBSzf86Ng4n/lSOGg5RkdfudFOXoXSVPY79dY/9uXk/L7aQLbd1z5Rr2cZVrnz3Vv6NAAOCoFjtBc7Fb2dj3T+vSrv2ZNGMV+k0QWoRRZmepwQLiQ5P5Rx2rbSVyQ7MMHcjh3MdB3nhe0DFF/0j9gZspDneGjfbTruvJCm6KKy6TqeOUuXcblgLjdSSpd3H9PbdtSClTpu57n9sI903VDPYfr8ptMbMd5MfW1EfvQJAhCAAAQSAtdOmfal2RtNz79DU6adWQ9AYTlLPdrqrQ1fia1kveX3p25/2q60X/IqE/Ays75af+r2dZ+tVs/3+vxAKjfwLsdjK2VcLnnWxwPeobaOog54NimYl9rZ0v10mmevvFzPS/SCFbcT6oQ2/Jm8NRROwpDnzVA+tBm2Q5VQNoROnxcyS4Qu56WMaSvuo2fggpU6buel+5Hed6hHCAEIQAACEGhJApl89GY+jk7Vlcht81G+Pc7FcxRW+m2umlO4ull1hX4U1HrH6IcV6vteh/Mq5FfKGsi2K+2XvMoEPCvwouQlXbXYyyq8ghSWbdVSl7LVEfA9QX+T+vNQhHNUPyxvq26vpUv9W8k3ls4idZAIpB2xwfxd6MvhNVNf+3J81IEABCAAgUEmMHvytFNymWjk7g9e71UuTWde5hLukfCPZFpOd36x+abv70gPJHLcacXWl7aL22B7YAh8Xc2mz3U1cdfBBpbAiWq+mnMxWGX2G9jDpfVeCKTPcy9Fhzy7mfo65LDoAAQgAAEI9E7g2o2mfmX25Omn9V6ycUv4/oGzpVck/1A69LbTi209JfgKd/oH1fGXJOcVWy1tF9dle+AI+N4dL80qPo/ltl123MB1h5YTAg8qDOfA37OTJc8m+36rkD6YoZe9+eEN2NAQSJ/roelB9Xttpr5Wf1SUhAAEIACBISMwe8q0U3V/1owh60Cddzy2l/bSg8D0j6rjzqtkvbVdqW5L5s3QfTnXrD913QE6+LXU7jNS8Xks3nYZl8UGloCd2MDeSzPTj8v3/VmzU/mh3GCEz2m//Vm+qOpYOQJXTp628mVrTS+3dDd9fss10SjpzdTXRmFGPyAAAQhAoAIBO1h2tCoUqTmr1hvea95BqsKSiu8j+RHQv5Zulnwfhu/r2EtK//hvoO0pUjlznssE84s4q2071CF8B4HtMtm2+LFZG027avbknTZ6R1b/Nzw7tZl0kVTqPiunOc9lXBbrB4EZvTvMaafqUu0q/ZARPxjhm/3YfX+qvkeVr5FKLR3uT7vUFYGRcX7K2DH5Z67daNrZV6+7Q6ll13CCAAQgAAEItCSBOJ+P83Hsi3h1s7a6tVS+oU2V9RlpT8mPNi62nZTwOcmDOw+0j5A82OrNXMY33fs+rU9L7VKxpdu+U5nfla4vLsR2FM2I5nTNjqfHuuN9zyjTtuesKdPkAOfP2O2hG+6rE5//qJ3DJd8LtIO0umT7h3SL5HysLgQWOczXxLnuM3Z9+KbeZn7rslcaaWwC3bl8dzabGasra5/PjGo/Vt/xn3Z0xmft89h1zzZ2z+kdBCAAAQhAYGAJ5DNxJpPLd9ZzLwP5FCkv+zlLOkiqdj/PqKwH31629rhUyd6rzCckD9InSNXarSp4iOSn3pWzeEa0XXa1CVHb2LFRW3t71JZfkM0uaIva2rKj27IdOcXibJzJt2Wkrs58W3s2znbFbW1xt9LifJtOVlYOcVtO2zp6KxvnNFekNHkybXpcpLaVr3gsryafz2UdFuroJaR6pGTWj5J0vSjOtEVJfuS2/ZJS5avzhbblettZVjm1G2l/+Z79OV8+ufKUr3Z66im/p1425Kkvhfo6SSsp7x2Wi/Jfr/OTVuwMe1Yzba9ro64f7HTjrRj3+x7Ccefz+WKH2csFw2sNXlF8svSvpLxnt6+Vdkm2+xs8qQb8v8CzzWn7X214RtqfvWD/p4gvyrwUEnoJC9/TpdYcnR05vy27wrhXs7nR7Vl/V6MR2Wy+M85G7Zmsv6NRV5zN6zsadUsZfVcUz4d4rquQ1lbYVrrzc/4+qWwhVB9TaXl/9+LunvxC3OXjbMbf1WRbV8MK8bjwfVSbhe+x83P+3ipU/qI0fTcVzzit5z1dhVDX1JI2/P3O+/vbUyfs02GUtKO4/q8Uyut/RE+o8oX/M8n/g3wUj9Z3fIk0U7X5tq5v7bLbgzf8JpWuYg1tiz7b6mWj97WhQdI5CEAAAhDoITBrytSvayHQ27s9dN0Z9WIyUD9QbtezTOv1oaMTVecfkmdQtixT/3dK30paTXpGqtUeUwUvNyz8WGsd5kkaIJ2imUIP+OT0aGgSF5a1dSmtS2ld3pZToni+S7ldinersrbjLg1uVE752tbAqKe8tl0vjlW/UE/l/5vnMtqOujSw6spHObWf6dYArKc91ZPz1S1HS3mu35NfKKfyGgUX+qN99uRnurs0GFR/4i6NxLrk4KlOvtt918BSfesq5Muj65J72JVX6PK5Nm3nOrpG5NTPdpcf9Q8dS2Gplpy1P+a6c6fs8ciNXtbZH1tMlT8o3SHNlbxU7TkpfPZ8DlaRPMj34P9D0u3SW1I9rDAQx2H2VPE7HGbPbtnJsfnBF9+T7OweIPm71Rfz59qO0oSk8sMKPyK9R/IgfmnJ5uXCe0tTpSukdkmD/Wgb6U/Suyx8R4MTUwhdyt9Tf9cU6vPu71whHtL8PfB3tKec4kl5ffiSuOokafo+9rQV/bdckufjWlSuJy32/4OetEJeXhNFPduF9EJc7SiU01b4f9HTJ3/PVS4jqW+L2lBc/0B6tjOqp++n/KpCOWV1xRnFC2nKU11doOlpQ2HsdLmMnd1KUxjlRhRCXfDp1re9u3tEpkv/UbpHtGW2jDOxl2Nq13ILxV5FZuzx8I1/dZLTEwvfzbDdaGEz9bXR2NEfCEAAAhAoQWDWlOlnaKQ0Tyu4vlEiu09JdioGwjyQ7ouD5b58UTpWOlC6U1pVStuz2nCe7fM9Qc1/3Tf30QPCqLPzH2e/9trE/xk//umuxx97rGtGz9JFZ7WUzd5ompyz+KnufO6rezx8Q2Ew1kcAHqR5SeARkpdsjpZ8n9dD0r+k+6UtJJvjTrOtKXkWZaF0qzRT8oDcg9yqLAzGKznM8eioe2zB8ZXDPCqTOMx2TOMuzVoWHGZ9Mbo8/1Fwoj0oVp6WWqlMoS/dmldwn1zWad05ObbBYdaEs8rnCg6wHWK9d0EOs53puCPK9TjMOTvWcnbf4TC7THCYvb/gMGsgbYdZc509DnN31F3aYV5Yi8N8hfofnKzlFP96VYDLF+pQ1r6SL4DcJnn7I9Kr0n+k7SU7z3dL+0mdks/1HtJV0mFSSQdL6Yu+owvHdHW/+re3u7W81Q5VerDtYlgFAtdsNP1VTX3Jwcpfm8vlv7rHIzc8WqE4WRCAAAQgAIGWIeAJlpyWgjTDAU9QJ93RvsiDp00k25LSyZIH3JbjTrN50O6Bbl/24ToTJCxF4NoNp+85Q3OlqaRao3auPEPxhFR8XnZJNebB+JWJHA+2qyLF9TzrdbQkv6d3u3K99Uacv9L0MQ5n9O9Yet9ZA5eQwzxv9pTpj14zeaqdmFLmGUYvmS3mXcv22ap/aKLgNGuz8BCb8D31drAJipQ6j6uHAoQDR+DqdXde7eoNp29cZg/p816mSMMkN1NfGwYaHYEABCAAgfIEZm00/VuzJk89oXyJxsmZoK6kfwirifvK9w+kSVKxjVLC2OJEba8pfVeaL1Wzj3SZCaqD1Y+AZwc9i5FmnI5/MrUrn2PPVlrp832cttN10nHfoxecb0WxSgSqdJinq40wI5RmXU1c93lp4Rw2XAikz3mjH1Mz9bXRWdI/CEAAAhAQAT2+/UythvpSM8CYoE6mfwh7i3t50TqpA5ui+KnSHOkNKdR/XXEvOXKeb5APtooi10mhXDXhhFCZsN8EvNTLS/wqcf9Wai9HpMo6HuxMRSq1YUf88FCYsC4EjlErtc4I36s6i9dl7zTSKATS37tG6VO5fjRTX8sdA+kQgAAEINBABPTE3bPkaPmWpbpZqaU79Wjc91v8pcqGfqVyX0nKbqPw21J66VGSVQiW0N8PJpqh8M/S16SrJV+VP0faWarG3Ees/wQ2VBMXSL7do5LZEQ62VIgoTMfTZVJFFkXbFTtfekB6ZFEqkf4Q+JEq/126UOqNf05lzpN8pedtCYMABCAAAQhAAAJNT0BP6s7kMjmPc4adjdQRzZTSVyhrifv+ntESNvgEvqNdVnOu7k51LT1j5Xgwl6mmLe8Tqy8BL8n1cs3fSsUzW/9Smp2r90rY8CSQ/t41+hE2U18bnSX9gwAEIAABEbh2o2lnz5487fP1hDFQM1m19vHTqnBIrZVS5f2whT9J6SVpqWyiA0igt9mPsOt0ufEhUWE6XvwkyVSxd0TTbb0jg40+E1igmr4n0vJj/FeQFpP+k0gBBgEIQAACEIAABIYfgViPcc5HenlSHa1RnKx6XCFfu45caKp6AtU+/GBlNZmRPBWbXiIY4s5bSbLNk64qxP77x/fgrZdsVrvP/9YmVgsB3/v2bC0VKAsBCEAAAhCAAASalYBes5PJxPm6LhdsFCerHoPmerTRrJ+NZui3P2srSl56lp69CnHnhc+jB/mPSWmbkN4gDgEIQAACEIAABCAAgXoQ0DRWnJeXVY+2QhthUBu2CSEwkAS8zM9OVpi98r5CPL0E0I7XWc7EIACBQSdQ1x+ZQe89O4QABCAAAQjUSiATax4rV9ffPy/RwiAwWASCIxUcK+83xEPeYPWF/UAAAhCAAAQgAAEIQECPXdM8VhwPy+WCN+v8vtLPc+zHemONTSA4UukPcYiHvMY+AnoHAQhAAAIQgAAEIDDMCOR129HwfPDF5TpTFja8CayaHN40hXek4o6GvCSZAAIQGEQC/b2nNb3Eore2aik7iAjYFQQgAAEItCqBOMrEubi+ywW5J6tVP031O+5b1JQf812NPZwU8kMtPpiKO+o8v4upGvPj+jEIQAACEIAABCAAAQj0m0A+zsnLyoTVVf1uzw3gZNUFY0s38lMdvVWrFT898GI1YGEQgAAEIAABCEAAAhAYNAJ+tGC9Z7J48MWgnT52BAEIQKDpCNytHnt5X29KH1g9y7ot9wGDAAQgAAEIDBiBfJSPM3qKez13gJNVT5q0BQEIQGB4EdimAQ6nEfrQABjoAgQgAAEIDCCBwquy6tk+ywXrSZO2IAABCAwvAr09xGJ4HS1HAwEIQAACLUlAzxbMZHK5ut6TxUxWS36UOGgIQAACEIAABCAAAQhAwAR6prFYLsinAQIQgAAEIAABCEAAAhCAQJ0IxLGeMMg9WXWiSTMQgAAEIAABCEAAAhCAQMsT0OMF4/o+wp3lgi3/oQIABCAAAQhAAAIQgAAEWphArBWDOZYLtvAngEOHAAQgAAEIQAACEIAABOpJQGsF9aAnlgvWkyltQQACEIAABCAAAQhAAAItTEDvyWK5YAuffw4dAhCAQNMRmLXR9K+q0zwKvunOHB2GAAQg0DoEtFpQk1ndPPiidU45RwqBPhNYXTXXkNqTFpZQ6LR62ppqbKsaGzysivJZlVm/inIUaQICcT7/5e+tudOIJugqXYQABCAAgRYlkJeLlenmnqwWPf0cNgRqInC7Sh8pzZF2kVaS3itVa+NV8JReCk9SftrJOlTbG/RS54Be8p09Rtq6inIUaQIC+SjuWC37Jk5WE5wruggBCECgVQnYx9JzL+r6MuK2KmCuqDKLJeX+rrCuHSjav69yX1SUVmnTP9z7SD8vUchX8FeWnknyJit8OIkTQGC4E/iXDvAEaXHpLukTkr8PG0unSW9JF0jHSJ45skO2qXS85Lp/kfx9fDmJp8ttobTjpFHSDZLNM2WflV5Mwm0U7ij5/8XR0qtS2r6tjVWkNyTnf0uaKC0jHSqtI7mvJ0p2um6TvithzUYgjjq641E4Wc123ugvBCAAgdYiEOumrEFfLniVGB+YaPQA867mKne6C/7h3iudkIq7rQelsUnaDqm8aq7Sp4pXjB6q3N6u3ldsYIgy19J+6718bDm16cF2se2nhEqDLA+2ly6uVGHbToEH3ztWKENWD4E3Ffifhi+ULC+Nk16S9pe+Ll0u/UfaU/paEn5a4cXSfdKPpeJyX1Ta3tKlUjA7S9dKZ0hPS4dLLnOzdJCUNjtP/g76c9EtedZqC8nlvP2K5M+m+2onb7pU7nuuLKzBCXTk47ZK3/8G7z7dgwAEIACB4U5AD77wAwbr6mS1VQHNV6JPTcp5MPRB6TfSVpIHZ3ZePED2oMxXtX8geQA1U3pWOlEKV6Kd9mPJAylfWT9Y2l7yVfUjJV91vywJD1W4vvQZyYPqL0vzpbOkkdIF0p2S7SOSr5yHfjrNg8bvS7tLP5fWkIIdrchhkgdwvmKfvkrvPm0i+bgPkb4pLS1NlB6QnHeOdJNkhyJ99d4Dy1UkDzi9j7zUiOZBtAe6b0seWL8o1cN+pUaelI4qamxfbd8odRSlh831FPHsiQfX1diWKrSi9JNqCrd4mZV1/POKGDyTbI9S6O/UNdKjkr8TcyV/9v2dzUi24nIfV5rrvSb5uxHMn3d/Vz2g9mfL227P/w/S5u+569reknzxxk7ghZK/32l7QRtuZ0E6kXgzEcjre5/FyWqmU0ZfIQABCLQYgVhvIu7O5Tz+qZtV42R5oHWJ9Ix0qnSKNDXRIQrvkC6Xbpd85dmDr19Ldoq+KNmR+aR0t3SLtJRkZ6RTsgN1vPR5yYN+H5ydLc+c+Sr4fpL3tYb0Jcltnyl5QHhnIg/QPyftKQVbSREP8i5IVOxkXax017PDd690tvRRyW14oHef9B3JA8hVJe9za8mDQ/fvdOkmyc7UtZIZeFDqwaT7fJ7k8vdIjWh2GP9X+kHSOXPycR0hPSitK+0g+fjNqpTzfJrS35L2l2xu82/SFGmE1CGdL60gmbXNbXnA7kG1naq1pWOkZSW39S3Jn4/VpWOlpyTbdpI/K1npy9KnpDWlSVJwzMzcDu5l0lhpR8mfp6OlqZKPx47Z7yV/1m6VfP6vkLqkedIhkpekLSc9JvkzEPL/o7jLux3384fSiZL73Yi2mjrlvvsz6wsBi0l5yRbCixQ3HzN8UbKzdZ1kHntLG0o+P8XlZivt15I53yAFe1IRfzf8WfqH5HOxgnSQFMz7/p30FWmm5PN9RhL6M3Ow9IAU+lgcKgtrJgK6LtiRH5nx/wQMAhCAAAQg0JAE8nndlKX3Edezc9U4WR6oHpLa6WuKe+C0MEnzdoh7IDcv0XEKR0svSO70AukJ6VTJg79PSN2SB3S+ev0XyYMsO1JuY0lpVLLtq+HtkgeMr0veXwDxsuJLS963HSvbAZIdnq9L60rub7FlkoSwDw8w7bx5YHi15L55UG/zMXgw7X65L2lu7ofLuW9mYXPZdJlCYgP98eyVmd8r7SGtIdmWl8ZJy0p3SJdLt0tO83nxwPrL0hell6TDpWAHKuLy20jTpKclc9lduluyrSN9VLIjM0taQrID5HPh87iq5H7ZYdtFOluyub8u535+SbpI2lD6vWTbRHIfp0v+LFwvbSV9XDpIcj98PI9Jx0s7S7+VfiItI9khvkDaVPKAf5J0jnSuZBbOt1P9d8m8zpfcF5/nRjWzLDYfsz+vDm0/lMwglvydekT6fhLPKdxIsnVKxeVGKs11XDfYlYqYvT8rh0v+/ofvpKIF20F/3faHpFGS/y9MkR6VzpPM3G3uKblc6KvrYU1IQA++6IzyHThZTXju6DIEIACBFiIwJMsF7WzY8bBdI3lw7cG2nSU7H1+TjpZcxle4fyb5CrcHpH+UgjPkcAvpCMmDs1clD/L3l7LSfZIHbm7bA999JA+2rpOcPkPyoOynkh0th7YXJQ+Ive3+tUu7SDtJ86RjJLcV+qFoYd8bKnTeRZL7/4rktjokOwqrSLZQrzjsye1ZHne6Nj4pbSzNlJaSTpYa1ewM+jycKNkhCg6h+QZzGZ8nmx1Ys7SOk0ZLz0hps4OzpuRztYHkc/KG5IHym5LN9e2YWC9IPu8+X91SsOcV8fl3ejD3ywP3uVI6PeSPU8Tt2dxnD+x9vlx+fBJ3vvvh0Hk+zzb30dtuf6Rk5899d79tL0mOu5w5zZG+K/1KajYr9RkOHMKxpJ0iO1fBisuFz0ZoM5Qzx2DptkJa4OptO1i2h6QfSptI/h69KgUL7afrhTzCpiCQ78jG2VLf26boPZ2EAAQgAIHhT8DvycpF9X1PVhhcV6K3XSozo/hVybYHmZ+RPFC/QwoDpm0V96DcA1xb+kq0B0qPSB6geWBt52ZMantLxf1j7MGdy35POj+1rWhhmaD7EQaAeyrusvdKYUBmh8tpth9JLv8DbyTmAeNGSdzt/ESyQ+d+uT07EY67jYOS8BcKbd7HAYVYz5/01fsPKckOQWCRKtZQ0e+rN0tJEyTPQG0mXS1Nkm6XbNU6zy7rwfGfpKO8IbtfelLy+TS3dSRzC+enOFRWwcqlu43rJDtBM6SxUtp+rw07uj+Xfif9Q7LTv4Lk87evVGxhXz52f6aXkU6U/J3YUfJnwBbKObQukf4ofVrC6kfg5vo1RUsNRqAjyrNcsMHOCd2BAAQgAIEUAT32IpPpzgTfIZUzdNHJ2vUqQ7d79twPAnaE02bn0I6m7fOSl9Q5LW3pOqGs8x1Pb9upDdauSNguDl0mXTfkh3SHwexgVcp3OTvswYKT5O1SfXNbPh7PXKWP0+npfYV9hnAd5V8hYRCAQBUEZk+Zdvc1k6d7dQAGAQhAAAIQaEgCs6dMv+6ayTtPq2fnqpnJqrS/hytlktfQBMJMY+jkghBR6NksL9lKpzk7XSfM8Dg9Hfd2+kpAmHFMp6fz03XLpbuuZxbTlq4X0sstVUuXDftw6OP7cRKGNpye3le6vMvY2ZrhCAYBCFRBII47olzXiCpKUgQCEIAABCAwJAQ0UIyzQ/AI9yE5WHY6pARaxXnuEuWbayT9eI3lKQ6BVieg5dkxTlarfwo4fghAAAINTCDWuvZcXN/lgmEJVC2H7R9L38czFLafdlrLj/V7Vd7L1aq1rVVwklSuXsivtj3KQWA4ELhIB3GZdIO0rPQ5yfe/XSp5KeYnJC+h9P1wm0tHSZdL4V5HRbFWJaAXPHZkcbJa9fRz3BBoFQIeT/sWmuXqdMCHpNpZQvHVU9vF0cWV4DLVmB84tn6Fgr5VZC9p1QplGimrNzbV91Uvysp31/fBF311snwChsL8AIP0/TOl+jBeiackGVspTN9HVKp8Os0DxDWlcvVCfrpOs8eD01zui3dYLwcYHE/fm7d0ibIhv0QWSU1CwBcd7Dj9WvJ3/0LJD0/xP32f848l6lboh4J8RrID5vyNJayVCfg9WVlmslr5I8CxQ6AFCPhipMeopyXHek4/j/ngVP2VFPfvcDnbXRnVjsvHqKzHZeXMY757pV+UK9DH9P7yOFT73aDEvntjU6JK6SRdEIwzdV4umCm9q3elLqkUX5k2dDs560rXSOdLtuIr2zOVdpP0Punbkq9ynyAFO0gRXwl3mX2k0ZKXbd0hTZaukvw0uemSzfuZLQXAFzhRdoS0qbSD9BtppnS05A+JwzUk23bStZIHifbgvf+fSbdIO0rFFup9Sxnel9uelBQysx9K7udwMDtZ/nKW++Id0MtBbq58O6brSf6wF1vIL05nu3kIdKir86S3pTbJs1r+H2Cnys75XGmm5O90u+R0L8U8S/qLhLUwAT0WV+/Jwslq4Y8Ahw6BViDgi4o3Sh577ip57OQxpJ+GfIl0tXS8lB7vrqjtiyU/gGs3aQnJ5TwGdjyYx2crS72NXUN5j7svlzx2jqUzpV9Jd0pLSetIvgB6pXS99FnJ5oumHhO+4I2UTVQ8PS73LNcVktv7ulSc73HfYZLtAinNo5CoP+lxeylGHq8HP8Ms3Ecfl/vtMYh9gjB2NZtSx+Py7ucJUpp7mq2yekwvydJywXwubNcjtMNQjfmDsJR0orRAelXywU2QFpOKr2yvpzR/wDw4myz5A3aE5AGazUuO7FDtKdlB80DNaR+WjpHOlOx8nSxNkZy/u/SSZAtO0PKKj5O+JrmtT0v+wN4n/VhaTfKgz/n+cH5F+pLkfc2RjpQOloot1PMH6TzpR9IuSSF/oB6SHk62mzFYW52+RbpW8nm1eVDsL97iktN/LW0i2cz7UslOrr+U50rFZqau638q/lINZ8dUh9dStqSO1v/Qjk1Cf6+3kVaRbD73/vx8VFpGulfaXzpQwiDQkYty/j+MQQACEBiuBD6hAztJukK6QXpU8pjZY+HfSx6jehzrMat/Mz3e3VmaL3mM/GXJ4+rbpI9L/k0N5nG2x7uuN0cqN3ZVVsHZGK9wP6lb2lraQvIY2NuvSKtL7sfL0nTJ+7XtK7n/xeZxc3pc7t/6G6VfSY9Lxflu2/21efzo8UPg4TSbx+Vh3F6Okfs1QXK/PS49Q3pQMucLJdcLbIqPx77DZOkS6QhphBS4v6H4u2woZ7KeUG9OlQzfJ+clyd6eO+qOXyatKxmEHSKnvyb54OdK/rAclYQKCub8hUncwXOS2/RA/XXJeXnJbbg9570p2dp6gncsHfR+Qn6x8zhKefMllwk/9s8r7nbDtqIlzeXcbij3d8U3KFmyeRK/oK6eLvkDagY2nzefW38x75J2lf765xCGAABAAElEQVQiLSH9VPKHekPJX8oZUrH5w+tzN1wd0+LjbaXtf+tg/c9uK+lZyf8YPyVNkvx5GCv9UJon+TN0tPRJ6eOSv3NYCxPgnqwWPvkcOgRah8BTOtSpksef60seU9k8LvJ41/a25PTnJI9pPb7176Z1XLLtMZl/NzulUtbb2DW9v7fUwGjJ+7FTcpaUNs9YeZy9IEncXeG1STwduM30uNxjeo8fPRa2s1Wcb19ghGQWDm2BR89Wz18fp8fX6T4HRsV+hvvpNjxJcIHkcUdxm+nj8TG7/eB/uE+Bu6IlTMsu8t2x91M3K3ZGyjVsL/gIyY6PPwyhEw6tDmkbaRXJFvL/oPgYaTdpFyltX9OGT85lSWKoc5G2PaiflYQPKNxS+oW0juRydvqulkKb1yh+nTRbelXaUDpGCm26rvPPl34o9WahXnHoeu7bOMnH1Kzm/r8o+cPsD17anBc+qP6A2jl1mRUkc/QM1R1S8YdbSYvM/wSGm2O66OBaMPJdHbO/+/5RCObPjrf92bAztYnk7+5vJVv43PRs8beVCXToH2n4oW1lDhw7BCAwfAncpEP7meQL009K/s38juSx6qckj58elez4hLGlHZrNpV0lj6Gvlz4nXS61S2kLddJpIW5H4ljpKsnO2cbSTMmTH/dLS0kepx8sud3QVjqcpPR/Sf7ttvm33e35d936qRTG5SMVHy2Nl+yYFef7OD1G/pUU/vcHHkoqWHrcXomR+2iZ6enSqpKPxw6t+2hLH0fYLuV/hHKFSu/6o+WCmTovF3zXPiok2FkKA+vgnIXQ1Qw8bIfQ6TZ7nHEh1vPn8wp2lkal0tJ1vB9/ENLm7XQZ1023md6/yxaX94ci1E/XC2nKXtReSAthyCtXz/nNZDups3dL/kJPkvxFt9fvcE3pfulKydPZdqpWlpx2uHSedKsUzOfS7YXwF4ovJ31IOjGVfrHizeyYqvsYBCBQK4FZU6aeM2vydA8cMAhAAALDmYDHUcE8fgxjXI8dPQYNlh5bOi1dz+Nfq7iM26hlDBr2PUX1PMmwqXS3ZAcltB3a8/bXJI/bypn75HG17UfSYZLHdB7z2dL5YdtpYV8OQ5+cbxsthXz3pRSjkO/y9kNsdtzSbYfjCGG6Ttr/SKcXGkr/mTVl2p3XTpm2XTqtWeOT1fFVmrXzw6Tf/rKEL0z44KXD8GFPp/nQ0/8MvB0+1CEM5UNeSPd2Os/bGAQgMMwJzNpo+rdmTZ56wjA/TA4PAhCAQKMS2FEdO0ryKq9y5lVM1ZpnsD4uHSjVUq/a9oek3Owp0+Zcs9H0beu583BvUz3brKath6spRJkBJeAp5WC5JJIOPbVrS6d5e67/pCxMv4YwlHeRkBaKp/NCGiEEIDCMCcS5qCOXWbRkZBgfKYcGAQhAoCEJ3FxFr7yMsVp7TQUvrrZws5TLx1Em052r6ziVmYVmOfv0EwIQgEBTEsjrXgAe4d6Up45OQwACEGgRAnrkRZyLM8WTA/06+no7WV4GmLattTEpndBL3Ost9+qlTPE+eilONgQgAAEIDBUBPV2wUz9b4ebnoeoG+4UABCAAAQhUIKA3EcddDe1k7ZD0/pwk9FNT/CCFas03qO3ZS+Gwj16KkQ0BCEAAAkNPIKOnC+bD/Z9D3x16AAEIQAACECgi4PdkZaP6zmT15Z4sz35dIh0k/VL6rOSnyz0trSHtKh0g+XGR/5acb50rhXWhLrOPtLh0iLS8ZMfsbcn3Am0snST5hrpHpLUkt3Wk5H34iSRXSH5s5X8k39CHQQACEIBAoxGIWS7YaKeE/kAAAhCAwDsJxHGc6eruHvJ7styBJSU7Ph+S7GB59ukhyQ7QbOlRyY/vtl0p2Tk62BuJ+RHgZ0kvSZtJn5JOlWZINjtXdqrsjE2V9pZWl8ZI3kdWWlby0sIJUvET75SEQQACEIDAUBOIey64jRjqfrB/CEAAAhCAQDkCed2TldX7iMvl9yW9LzNZ3s/10pnSGdIekl8I9qYUzE5QsOcVeUNKLxexQxWeZOKydpJcJrwETdHCy3I9q/WC5CfhuXy6DTtodvhcjx9wQcAgAAEINBqB7ijfoSUY/I9utBNDfyAAAQhAIEUgr3uy6rtcsK8Pvvi1euVZpsslv3g2LAMMHqCdo+9I5WyeMjaSJicFvOzwQulsSRc+CxbaCqETHQ/b6TDECxX5AwEIQAACjUFAtxJ76ThOVmOcDnoBAQhAAAKlCGi5YL0f4d7XmSzPLnlWyTNYW0lhDeMOitt2lvyjamcrOED7Kh7sdEVGSwukkH+74v4xtuPn9n4r2UKbXhrodG87DA/I2D/ZVoBBAAIQgEBDEejOduSzeZyshjopdAYCEIAABN5JIK9HuDfGckH3yw6WLThY6bjT7EClLV3O6X7IRdrsYNlCueB8he3ewp7a/IUABCAAgYYhEGu5oDqDk9UwZ4SOQAACEIBAMQEto4u7G2S5YHHf2IYABCAAAQi8i0AuyvmeWpysd5EhAQIQgAAEGoWAHnyR8XrBevanr/dk1bMPtAUBCEAAAsOWQL4jjuL0Q4uG7ZFyYBCAAAQg0JwEPJPVKA++aE6C9BoCEIAABAaXQNzWEeW5J2twobM3CEAAAhCoiYBelJXr7Aq3KtVUtVxhZrLKkSEdAhCAAAT6TcD3ZOlXi+WC/SZJAxCAAAQgMFAE8vm8lgtmWS44UIBpFwIQgAAE6kwgzvHgizojpTkIQAACEKgvAS1r19MFmcmqL1VagwAEIACBASPQ856smJmsASNMwxCAAAQg0F8CWnERt2Ua42XE/T0W6kMAAhCAQAsQ6OjIdcQxywVb4FRziBCAAASaloAuCGa6utpYLti0Z5COQwACEGg5AiO0XJAHX7TcaeeAIQABCDQRgXw+jtvjTh580UTnjK5CAAIQaGkC2VwH78lq6U8ABw8BCECgGQjk6/4y4rZmOGz6CAEIQAACzUVg1pRpO2uJ+1ejOBqjS4PLavsv2h7R1dW5616P3vxIcx0NvYUABCAAgeFMwO/JysXckzWczzHHBgEIQGBYEHh2bvftcrBW0g/XBlJWryBZS696fA4Ha1icXg4CAhCAwLAioNWCmWxXN/dkDauzysFAAAIQGIYEPv23mxbGudyM9KHlo/ib6W3iEIAABCAAgUYgEOumLGayGuFM0AcIQAACEOiVwMKHb7hED714slAwn3949wevu6nXShSAAAQgAAEIDDqBWPdk8eCLQcfODiEAAQhAoHYC+0RRd647PqVQM5f/Vu0tUAMCEIAABCAw8ATyeoR7tpNHuA88afYAAQhAAAL9JjAjitoenfvvI9/qXPjCwkduuKbfDdIABCAAAQhAYAAI+MEX3Zksj3AfALY0CQEIQAACdSRwZLRJe9vEzW9cLNu+zb8XzlvirxM3v95pddwFTUEAAhCAAATqQkD3DMcj4oU4WXWhSSMQgAAEIDAgBOxMrTqx7Yax2fatVx+75JiJY8ePcdxpOFoDgpxGIQABCECgHwT04ItMR3YETxfsB0OqQgACEIDAABIodrD06HZdH4wjO1s4WgMInqYhAAEIQKDPBPQI93hkhpmsPgOkIgQgAAEIDByBUg5W2BuOViBBCAEIQAACDUgg7lrAy4gb8LzQJQhAAAKtTaCSgxXI4GgFEoQQgAAEINBIBOJ8lFmY7WK5YCOdFPoCAQhAoNUJVONgBUY4WoEEIQQgAAEINAoBPfEiHsXTBRvldNAPCEAAAhCoxcEKtHC0AglCCEAAAhBoBAJxlI+7sjzCvRHOBX2AAAQg0PIE+uJgBWg4WoEEIQQgAAEIDDUBPfgi0/Z2B8sFh/pEsH8IQAACrU6gPw5WYIejFUgQQgACEIDAkBLIeyarjfdkDelJYOcQgAAEWpxAPRysgBBHK5AghAAEIACBoSIQ656szgxO1lDxZ78QgAAEWp5APR2sABNHK5AghAAEIACBoSCQ1xsdx2TnMZM1FPDZJwQgAIFWJzAQDlZgiqMVSBBCAAIQgMBgE4jjfGbe3NHckzXY4NkfBCAAgVYnMJAOVmCLoxVIEEIAAhCAwGAS0C1Z8bjsm8xkDSZ09gUBCECg1QkMhoMVGONoBRKEEIAABCAwiATihW3tOFmDCJxdQQACEGhpAoPpYAXQOFqBBCEEIAABCAwGAS8XfO21cSwXHAzY7AMCEIBAqxMYCgcrME87WqtMbLvefQl5hBCAAAQgAIF6EvCDL8ZnXmYmq55QaQsCEIAABN5NYCgdrNCb4Ggtlm3fBkcrUCGEAAQgAIF6E4ijfDyvbSROVr3B0h4EIAABCPyXQCM4WKE3OFqBBGEZAlmlT5ImSHrVTc22imosXUOtjMquLa2W1FlGofcfNCaJh/ykWLSEIquHjTqGPv71pQnS9hIGAQj0gYAefJEZO/Y/LBfsAzuqQAACEIBAFQQaycEK3cXRCiQISxBYV2m/lI6XbiyR31vSeiqwUm+FknwvWb1FOlI6UzpH2lw6XLpVOkT6gOT+fEm6Tgrmfbw3bNQxtFO3tWSnbps6tktTEGgtAnEUv/bYqHw9D9pXZDAIQAACEICARo6btK86se2Gsdn2rVcfu+QYOzeNYjhajXImGrIfD6hXX5AmJL07SuHl0k8kf4g/Ld0kfUVaQ7ITZAdoA2lZaTnpIsn2Kel90relK6QTpGDTFLlf8r72k94v3SXNkP4mnSL9n+T+fFJKz2bZGVpZOkj6mWRnbUcpWHG/XO7n0u3SGZL7/zlpnHSZNFvaS+qS1pEwCECgHwS8XPCFaBxOVj8YUhUCEIAABEoQaGQHK3QXRyuQICwi8CFtPyxdILVJn5EulVaX7DB9XNpZ+h/JDtIfJDtHx0l2skZInmlaXrLj4iVDk6VLpCMkt2lbVXqqEOv585yCpVPbIeqZJTtot4UEhYtJbt/7myN5NuxgKVipft2hzC9La0nu/x7SXOkk6ULpACkr+TgxCECgHwS8XFBfTX/362bMZNUNJQ1BAAIQaE4CzeBgBbI4WoEEYYqAZ3s+LO0ueUlft+QZnrOkf0qvSr5C/ZZkZ8fhI9K5UjDPbs2QHpdGSXZm3IZnxRzanpHsfNm8Hzs3z3ujyP6o7UOkzxelh03XeUNyG8FK9esFZb4pOXT/O6S1pQuksZIdLAwCEKgDAc9kzej5ntWhtZ4mcLLqhpKGIAABCDQfgWZysAJdHK1AgjAhYAfk/6SXpDWke6X9pQMlO0svSr+U7FRdLDnPDll6md012rZj9HPJM11jpN2kXaRgNyhix8plb5POljolm/sQ7G1FFoSNVJguk0ouRMv1K13O9b2/paSpkp1JW2g3hD2p/IUABKomoC/Pb1S4rt+huOq9UxACEIAABIYVgWZ0sNInIJ/PR/+Y9/r8ud2d9zz3dNe0C6I/hgFvuhjx4U/AF4y9zCeEPmI7SQul4Ih45meeZPMM0EhpvuRxUBhYOT2UV7QwW+QyId9pNtf1rFI6Pb3vdNzlg4UxV6hXXK5cv0K5EI5Qg+6n20kfd/pYwj4JIQCBISIQvvBDtHt2CwEIQAACQ0Gg2R2swAxHK5AghAAEIACBRiLgqyYYBCAAAQi0EIHh4mD5lHnp4JLto9rnd3WuOHrJaJtJr61wxR+jF+p683ILfTQ4VAhAAAIQqBMBZrLqBJJmIAABCDQDgXo7WNtffV40atmlou6FC6MX7vhd9NjZP41yHYO/ao8ZrWb49NFHCEAAAq1DgJms1jnXHCkEINDiBOrtYBnnpEP3iO45/KTo2atvidY6fO+obczo6NUHH4/eM3W7aKUd3h9l2tujec+9ELUtNjaauP/0aOnNNihs5zs7o9X3nxYtv82m0dx//ivqmu9nBfTdmmBGa7yO7hPSXyU/FGFF6QPSUxIGAQhAAALDjIBvosQgAAEIQGCYExgIByuNbP7zL0X/uPLGaKkN14nWPGSPaM1D94w6Xn8z2uQbx0dLb7yewi9E49ZYNVpstZWjTb/5RTlh20cr77httPC1N6KRmgmrhzX4Uwf9rqPvS19PjnVNhYclcQIIQAACEBhcAttqdz+QHpL+k8hxpzmv34aT1W+ENAABCECgsQkMtIMVjj6f67kVaulNN4j+NvPq6Omfz45e/O0foiXeu2a0jNKWWGeNaPE1V4sWW32V6K2nny04XEsqb8GLL4cm+h02uKM1Rwe4p2SHK21+Ya4fH+xHh38hnUEcAhBoaAJ+wmMzqqGhDnDn/OqGO6Q50iclv/tumUSOO22O5DLp1zxoszbDyaqNF6UhAAEINBWBwXKwRi69ZDRhr52iV7RUsPvtBdHY92g1nB5KMWbF5aKuufOjznnzo8e/d0l07ydOiu7c65NaIvh8dMcex0QjlxkfrbbnDnVl2sCOll8s+w3pzNQB+97oK6VTJIM4StpEwiDQ6gS8pHZSonqMV/3CZw+ix0m2NaTQ/mqKj062vV9seBL4iA7r99L2qcPzkm2/A89KL992GZd1nT5ZW59qUQkCEIAABBqewGA4WLnOrmjbn58ddS1YGL145/3R05f9OvLs1GZnnxxN2HunaN7/vRj965a7dW9WW7TJGV8oLA9886lnotceeTKa+LFdC/ds/f1ns+rOMjhaT897bZtVJuavP/LpTRrlPVo/1sF+StomOehlk/D+JPytwnWlPybbQx34Kn0jGw/wevfZGS7n7Codml/6bDtLCu85KyTojy9YfE1aGBIqhO9XnsvfKflihr+DO0tbSW9J90qvSJ5pdntPSF+VsOFDwA72tZLfmWe7TjpZ+rM3UraB4mdI06UlJNfZWnpYqsn451QTLgpDAAIQaA4Cg+FgVSShWay2MaOirnn/faBF3JaNsqNGFma2XLdt7Gg9lbAzynd1VWyqP5l+6qAcrfnzCi8s7h5KR2tzHceXpV2lPaRLpFukA6R/S76q/qrkwd4J0t1SI9hwGbA3AsvB6sNwOWf+Dtg5snmW6QrJ/yx8/8x50vXSXdKnpbMlP1xmpuTvlQfGI6TdpTekm6UjpWelTaXPSgdKrvu8ZIfuEMmTD7+UvFRsC6k3S7Nu9DF1M/W1N+615mdV4RHpvUnFUxTakapkdsDCPbSPK76hlH5ZeaW6hbx6TL/2uhMKQAACEIDA4BEYcgfLhyrnJu1gFZK6uhc5WN52/kA6WN6HZ7Qmjh0/Zmy2XTNa2evNxulDYB7ghEHONYp75qoj0ekKH5D+JD0pNYqDpa5gEBgyAh6j+mLE1yQPkj3ru5c0Qfq79KBkx8mO1HzJZX0hI5T9sOJ2sGzLSXawbM9IvgenlO2vRDto55fKJK1pCdihDg7WTMV7c7B8oC4z0xGZ67qNmgwnqyZcFIYABCDQ2AQawsFqMEQN4mj9QVi8FCmYB4AfSzZ8FX5taSvpsCStUYN/qmNrSPEgaxXt7ykJq51As56znA71EOnU5JBfUug0O06epbLZofK9Vl5KaB0n2Z6TXDbYC4qEhxhspvhfQkZR6NmxqdLFRemttGnfYLJkx7RW84zjJGnFWiv2o/wY1bXzXcmCg+SlFV4pUK25rOvYQhs9W1X8xcmqAhJFIAABCDQDARys8mepQRyt4qUmYWbLHe+Uwo95+QMZ2pw52v1q0l2SB1KDZd7nbyXv0zOAWPUE5qhos54zf18uS7SkwvB9cWg9If1CulHaXNpV2kayhbI9Wz2zYTO1cYX0BeksqZS9pcSuUhktlHaRjnVf6bQyx3xOmXQn7yP5otH3pHL1lVVX8z1W6QtYxY23K2HbJPE3Cv9dXKDCtsu6js1tuK2qzVeiMAhAAAIQaHICOFjVncAGukerug4Pfan0YNWDmV9LH5I8M/BBycsbB9I8a3aHtKp0r7ST9KYUjHFMIPHfcLies4wO0bNTIfQRe+YkXJzwjNZcJ8rSZXpSev6myzvFn5/AK3yWwnZPjcp/02VD/co1hi632r7epS6eLN2TdPXbCv39C8uZvZRypuQn79mpul/6H8l2iNQm/VLy9/abksssLjnvA8m26/wzFfds1HXS2tIK0s+k0yQ7a3aIR0oXSP+SnG5n2KEdPp//hdL+UinzLPizScbpCr9aqlCFNO/nK0m+OTxXoew7sjLv2GIDAhCAAASajgAOVvWnrEFmtKrvcGOVnK/uTJNukVaUPBhbXxoo84DL+/DAZo60g+TBFVY9geF0znLJYYfQm8HBcjw4WI6ny3g7WLq809KOh+Pp7VCn1cJP6IBPkq6QNpG8dPAS6QjpBulR6UTpA9J90o+ktNnZCfe13aq4naSXJC/TTNdJxx9Xnmci/f/F4Uekp6UvSWdK+0h2/MZJbsv7+JR0qjRDqmRLpTJfTcWrjabrpNvqtT5OVq+IKAABCECgcQkMloO15qF7Ft57NXaVFaOVPrx14ZHsEz+2S7TOMR+LRi27VNS22NhozUP2iCZ9Yp9opLat1fedGq1z7IHRuDVWLQD0Y9wr1XGhZd43OVrnkwdGK35oywGDjqPVL7QLVNuDIA+2lpPulKZI9bb11OAcaWXJy3V2luZJWO0EOGe1M2vlGk/p4KdK9hE2kOy8egnlUUmYVWizI5aTrvRGyq5X3PUvluwE2XGyuV66Tjru7/gHpbGSnZqDpNnS4tLr0kIpL9meKfztuRfP9+e9lmyXC+JyGX1Ir6ktnKw+EKYKBCAAgUYgMFgOlo913eMOiuJsJho3cdXoPdO2j94zdfto5R23Lbz3yg7VJt/4QsGZWmy1laNNv/nFaMwKy0YbnHBUNGLJxaM40/NT01udJdebFG3yzeOjjtffjDY86Zhomc02HDDMOFr9QusBzx6SB0HLSHdIm0r1sslqyM6blw3dKO0iFc9AKAmrgQDnrAZYLV70Jh3/z6QlpKulMdJukr+HNn+WviN5NstO2ItS2jzbHO5r84WRjSR/p23pOun4fOVZj0g3S6tL/5Qukn4qzUpCBYucrV8qfqF0tlST86Pyg2JeN4lBAAIQgECTERhMB6sUmreefjayQ+UXDz9/6z3RMptuUHjxcL67Oxq1nMfdegTYX/8RPfKN8xZV763O0huvp/dojYpW3H7LKDt6lBy6VaKXH/Bv7sBYcLR6XlgcNdILiwfmgOvbaoea21vygwn2km6TdpR8n0Z/zMuTvMTIy3LsxO0jeV9Y/wlwzvrPsBVa2EkHuZg0NzlYf689w2QnyOZZ5RHSAildTpvRpf6TstMVHy25rGeibpTSddLxXZMyLhfa8f8VX3DxlbpOyfbbniCyM3i75M+18xvOcLIa7pTQIQhAAAKVCQyFg5XTO65GLTM+GjdptULn5v7z+eiOPY6JNjrts9Fqe+4Qdc6bHz3+vUuiVx98LMqMGBGNfc8KUa4zXMzsOZ7e6qz4wS2iN578e3T/Z0+PMm1tUdf8gZ+8wNGq/FnrJdeDnv0ln+j9JDtHHoDdI/XFtlClmyVfQb9KOkAKAytFsToQ4JzVAWILNBEcrHCo6aW6XiJop8lWXM4OUrEV/yNP10nH3W6wdLxbiVaw9D7sYNnS5XtSyv+1QzZeWlryxRyHlu2VRK8m4WtO7Ks15PRaXw+GehCAAASGO4GhcLDMdJNvHB8t/4HNonx3LnpFjtQrf3xU91ftqnuz2qM/nXJ2wala97iDC8sH33zqmehvl1wTbfClI6O7Dz5+0SlZ46DdKtZ5+PQfRFv/5BtR29jRmtEaGd3/mdOj1x97alH9gYy02lMHr95wpy26H7npAU0TpQcvpRCnBzTlxgy+12KmdKDkwdg0aY5Ui22jwr7KPU7y7NjBUrm+VdMnVR9exjlryPPZTJ/FZuprf0/2RDXwBclO1KrSVpLNSx09C1fuf5nLpM3M7MiNTBLvU/isZCfMyxSflspatTsp2wAZEIAABCAwOASGysEKR2fnp2ueLkr6HqtcruAMdS/sjPJdnsjQr1ZbtuAcdc3tWVXie7jslKXNbVSq47Jti42JuhcsVLvlxtjpFusXbyVHa9aU6Xdo9c7K+Xz89c6Hr7usgrNV7cDMV4cvlD4u+cq179+4TarGtleh6yQvSZopHS6984OjhJRV26dUleaPcs6G7hxes9H0bfd48Lq7SvSgmT6LzdTXEqhrStpOpe+sqUbthf1/a06lav6niEEAAhCAQIMTGGoHy3gKDpYjcrBs3g4OlrftFAUHq7Bd5GA5rbc6hTJy0gbbwfJ+w9LBsdn2bVaZmL3ezJ0+HC2Oo7yOdy35y5eO3Gj6k9dMmXrIjGi7/txC4A+FnaOZku/BsNPkezt6s4+qwA1ScLAOU7ySg9Vbe8M2n3M2dKc2m8/fMGvKtHuvmbLzR4auF+y52QjEzdZh+gsBCECgFQl8feLmt47Jtm09cez4MXYGsIEjEGa0Fmsb+c/lR47N6fJvHMX5AnT9iTX7k5yAQqQnrpNSKKduuYBdtrDtuk5wj/NKjwr5hQTn9NR3Bfk9haNSousu2vbevVlooKgt5TnZZf/br6Rukue6i9rSRrLdXkguNJr8yUe/efX1t3b5+DNzwv0WzlBXFlno66KEoojva7hD2jBJ9zIbPxzj18l2ceBlhb73KizFeUTxD0kvS5WsbJ8023OsOnlsgT3nzAwb/pxVOtGNkjd7yrS5+r74QoC+vvn7clFuxh4P3fgbb6b62BvrVNEhiTZTXxcBqjCLuKhMich2SruzRHo9k7ZXY3MqNdifq1aV2iUPAhCAAATqSEC/jukfyDq2TFPlCLzaMf/FpUa0f6otk8nnOjMF/rk4k2+POwvxbsW97fq5jg6l98Sd3h1rW/UKeQu0nckW4iPihYvi3XE2PzJeUEjvSpXpUplRKt+V7anTNa9N2/N7ymXb8p2ZtkJ8THZuvvONnnhHpj0/LvtmIX1hW3t+QXZE/u2XRxa2x2dezs9r64m/1TY6v8LIZ/MjR0y8SX37oPunT9Y/cnHujIcfmnfJjGhOz9rPQkZNf+xg3S7Zwfqr5AHoJyU7UX44xtVS2nbXxhWSZwt/Ia0lbSa5jWocLRV7t3XEXb/K5HJ3cc7ezaZEypCfs2unTJuRieNTS/StYZN0yWIrLYy+ddaUqd/Z7SFPwmIDSSCZRXw45dgO5O7q2naje911PVgagwAEINCsBGboVqXsxM1vGJtt24bZrIE7i2EWa1535z3PPd097YLoj50Dt7eha1lLn36jOY5JmtY648WHXph5VPnjLDhqSU/LjRl8c7mdI7+U2A7WdtIL0unSKZIdtwMlO1W2faWfS77Qe6F0lLS4ZMdsU6m3Ga1q+qRmhpdxzobufDKT1ZDsK3VqO2XeWalAHfJ6nckq9w+zDvumCQhAAAIQqCeBGTha9cT5rrZaxcHygc/eYOcPvPjnl35XwbkKfHpzaMo5WKH+VxQ5TeqWTkoSv6kwK50nHSeFfSyp+G3SJlIlRyuUV7Fel8O5zLAwztnQnUY7WfrQlZpNaabP4jv62oyziOETkM/nPIv4xbBdItxOaXeWSC+V5PfxfTvJcJt+X1c1hpNVDSXKQAACEGgWAjOGyNEaseS4aLX/b+9M4OOq6j3+v7NkkjTpSgptaWnLUqBQ6AYUyqYFZK+iFXgqPvCBzwdPRT/iVgwUUeS54oLIA/UhoKAsgiBr2ekGFNmXdKMt3Wja7Jnlvv//JjdM0ySdJDOTWb7n8/nl3nvuuWf5nmknv5xzz/n4SbqyoCMr73xQSgZXyJiPHePthbX67ofE0aXcd589QyJDB3t7ZtXVrJGqww+RdY88K9vfrNGl28/wFr0o2303WXX3wxLdVifj5p4gpVXDZeNzL8qWpf+SvT8zV1o1vmxUlazSMlo+qM1atxSTweol1B1+Mev0rO01YyNYU1XJI1idksk3NOKaTpE/1etLO8XZpeVpI1o9Ga2e6mR5FHvoiQ991odPRw/vBfXEug8lZfSRfKprB4geRhE70nRxcpzGPd5FfOeopzXiGJXPxgafnlTNVu0qYLJ2RYj7EIAABPKNQPUAGK1Zv7lSbEPihtXrZMtLr8mUb35RVt/ziAwaO0pKhlTK69f9UY7+w7VSc+u9MubkY/Udpaiapxdk2MGTZOGnLpEzXrhX1i98XlcNTEjJsMHy2k9vkj1PPV6a3t8kk754rvxj9qfljGX3yIanluhS8CFp2rBJll/5y6x0DQarR8z+Lx+WKHn2i/2ybqNO01Q9GSy97YWP6c8LVPYO1q2qv6i6C8l5dzWi1V2dusuv2OK745PMlT5Lz6eiO9bpyT29ueRTXTta3sMoYkeaLk6O07jHu4jvHGXvjdqIenL4kl78Kjmim/NdmiwWvuiGHNEQgAAEcpVAtb7jUl2z6NQGfUerpmFrVt7RGn7IAbLwnK9Iw6q1MvSg/bxRqdd/8QcpH727HHfHdR6q2tfekVf+50aJ7DZMzdJS2fT8i3L8X9u+v+Jqul74zk+kfNRIOfJ335d6NWu6TJfsNnOKhMpKJRgpEUuz9JvXym6HTZHxn0xl9e/+9xAGq08MbVqfjTalarCskAfbZee7Cls1wQkqM3FTVTZa1ufFMPRZggh9xqcgLwnEHefUbvYoS0d7RnWRyZgu4voUFejTUzwEAQhAAAIDSqBajVbcjFY89rQarUYzC5kMtjlwREegSoYN0U2Iy73RK9s0uHzPPSRa1+AV7dfBtX20tD6dNyKunLCnNxUw1tjkTRUcMmmivKZGzY3b6zrtwU14e2R9uLK5fyP9RwxWn5j6v6zbdL5URkP6VIg+9IFqjuolla1YaEZrNxWh9wTos94z44kcIZBBg2Ut/KJqn6Sm7t8elxTV91NMVt/Z8SQEIACBASVQnUWj9c4f75IjfnWFfOSu33gGykap5tx3o8z40WU6VVCNkpk83+h5p2b6PowLloRl1vVXeenf+cPfZPtbK2TI/hPliF9WixO0NRDa0npZmEHz88oQYQxWn8D6v6zbCoCZNFh+5XyjtVwjMFo+ld4d6bPe8SJ1cRGwP9zY/y97tOsFPQ5XpSUkz69OS4ZkAgEIQAAC2SVQnaV3tAI6pc+MlL1vZSFYGtGFL6IdI1ZOMNB2HtC/39lolgY/7tTn/yoPnfA5b0pgoqXVuxdQ42X52ciXjXr5adtufpiHd53GHxisXsE0t+yHJXoyU5UNg+WXaccRKhvJOkRl72iZ4fIDv8f4JD480mcfssj0WTLrXP8s5lNd+9tvx2kGj/cikwntaVf04pnjNe3CntIzktUTHe5BAAIQyAMC1Vka0TJz5Bssw2JTCJOnBHactxssS+PHrfrrgxJrahbfYNk9yysRjXWk8dPaPd+keedp/IHB6hfMgTBYVuEtKps62Nlg2T1CzwTos575pPOumZhcVjrbWmh5/Zs2yJTWkOuuO62NJTMIQAAChUygOksjWvnKEIPVp56zXxpzOfB7zM69Q5/tzCRTMbnOurt2F/q/m+O04Y931/g0xTOSlSaQZAMBCEAg5wlUZ2lEK+dBdFFBDFYXUIiCAAQgAIGMEWC6YMbQkjEEIACB7BOoznOjZe95jTxymoyYcbBufJyerygMVvY/h5QIgSIhYCNC/VEypl3l05u0vckrOV/O00jAOoEAAQhAAAIFRqA6T6cO7veFT8vgSRPElnuvfe1defHyn/arZzBY/cLHwxCAQGYJJE833NXv5L1Jm9la537uukqTjFfZSoG+bAEd/9yOna81yts6wlY1Ndm7oP55V9cr9X7bKk560lXYVYd29QxxEIAABCCQBwSq02S09vn8WbLiz/d7C13sc94n5N1b7tG9rGISqRouu8+e4e2ZFddFMVbe8Q8p1bg9Tz1eAuGQrPn7Y2LxliYydLBEGxqlrmaNVB1+iKx75FnZ/maNVIwfI2M+dqy0bt0mq/72T28hDEM7bMokmXrlV+WxubaNSd8CBqtv3HgKAhDIGoHeGKfepM1aAyioewLpmYvRff7cgQAEIACBASJQnaapg6PnHCWjP3qkjJg2WcZ/8mOewbImle9RJYfOv9gzVhPPOV3GnHi0VB12qLcse1nVCDn4sos60kRGDJVJF50j0xZ8Vex82lVf1SXgS+SoG38gCTVsZsz2/cI8j1TVrKly4CXnybbX3vGu+/IDg9UXajwDAQikicBTmo+Zol0pubh0prW8rA6EASSAyRpA+BQNAQhAINMEqtVoramJndYQjz29oqG20cxHb8Oa+x6TMaccK2NOOkbe+8cTOzxeq0bolWt/J+8vXCSlI0fIBy+/IYPGjpLKfcd7o1eW2EvzPzfK5iUvy+u//D9541e3qDEbIRUTx0lk+FAZecRUKdNnKyeM8/I2Q2f5vNDHqYIYrB26iAsIQCD7BGZnv8idSsyFOuxUqWKKwGQVU2/TVghAoCgJ3CDLoma06uPRPhmttQ8+oaNYB8m4uSeoyXp8B4a+aXPjcS/+wP8+T1q31clKnV7oh440tn+WbT6sGw9biDU0SayxSZZ961p57JP/JcsXXOfFb39nlWxatFxHzNry9CJT/IHBShEUySAAgUwSsNdxckGZbCN574IAJmsXgLgNAQhAoBAI9MdotdbWyaZnX/DeoapfubYDh2ee2kfGfCNV++rbspeasclfu0CcUFA9lY6c+aNn3qmNpLXFNaxaK+8/sViOvf3ncvydv5Kxp3/Uy9sM3dAD9+koJ9UTDFaqpEgHAQhAAAKZJsDCF5kmTP4QgAAEcojAhTI9PHZi6L6KYHj2hEFDyx0nta+BWb9ZIO8/uVhW3Pb3HVrjBANtI1N+PmqoguVlEm9q1r/jat46etWRxpZkt9EsDR1xem7Ltpvxije3LdTk3UskmTN7YBcBg7ULQNyGAAQgAIFuCdx16GnfiG7ect28955r6jZRL28wktVLYCSHAAQgkM8E+jqiVbdijax9YOFOTfen/nmjVe0jVnGdAuhdtxuqjjTt15ZJR5yex5tbOgxWxz1/9MsidhEwWLsAxG0IQAACEOiRgP7B8RuhivLyHhP18iYmq5fASA4BCEAg3wn0xWi98qMbxKYN5lrAYOVaj1AfCEAAAhAwApgsPgcQgAAEipBAX4xWrmHCYOVaj1AfCEAAAnlKwHWdWDBkLw2nLWCy0oaSjCAAAQjkF4F8NloYrPz6rFFbCEAAAsVGAJNVbD1OeyEAAQgkEchHo4XBSupATiEAAQhAICcJYLJysluoFAQgAIHsEcgno4XByt7ngpIgAAEIQKDvBDBZfWfHkxCAAAQKhkA+GC0MVsF83GgIBCAAgZwioBuOONEA72TlVKdQGQhAAAKFQiCXjRYGq1A+ZbQDAhCAQHEQYCSrOPqZVkIAAhBIiUAuGi0MVkpdl6lEQc1433btkYZCRiXl15vfQQ5pL/v8NNSBLCAAAQhknEBv/oPLeGUoAAIQgAAEBp5ALhktDNaAfx4O0BrcpvqM6jhVV+EnXUV2E3enxlteprJu0nQVfVJ75Lld3SQOAhCAQK4RCOVahagPBCAAAQgMPAEzWhfWTD9t7ES5b0VD7ewJg4aWO47OWs9iwGBlEXbPRS3R299rTzJNj99UlaseUa1QmfFpVf1OdZWqQvVt1aGqs1QvqapVFhIqPy8zWfeqbG+ajapBqsGqeaqLVNNVlv481d4qAgQgAIGMEHDFccqD9fZ/UdoCI1lpQ0lGEIAABAqLwECOaGGwcuqz9FGtzR9Ux6kqVZtVp6s+qbpH9YrKjNfXVItVT6guVlWpHlJVq/xgv3dYXleobCqipZmrmqr6supfKjNXN6quU01QjVBhshQCAQIQyB8CmKz86StqCgEIQCDrBHyj1RCPPqMjWo1mfjIdMFiZJtzr/B/VJ2w0aWH7k+v1aB+E5vZrM0sWbASrTvWy6qcqCyvaDh0//ZGp77XHbNCj5VWr2qSqV4VVt6psqmJc5eevpwQIQAAC+UEAk5Uf/UQtIQABCAwYATNaq2tip2bDaGGwBqybuys4pjfmqMz0fKM9kZkiC/6xRc//R3Wz6hzVx1X7q7oKZposL9NQlZ9H8tHObfrhbNVYlYXk+20x/IQABCCQwwScHK4bVYMABCAAgRwicKFMD4+bGLp/UDB8VCbe0cJg5VBn91wV+93BTI/9odZGpuxYorKRLRt1iqgaVX46Pe02JOfh52VHC/bOlhm45Hg/vd0nQAACEEgLgbunnl7buq1pr3k1j2xLS4aaif1nRYAABCAAAQjskkAmR7QwWLvEn0sJ/FEl3wzZ0Z86aCNVZrAs+Onarrr+mZyHpfCv7bwp6dqP9492nwABCEAgZwlgsnK2a6gYBCAAgdwjkAmjhcHKvX6mRhCAAAQg0D8CmKz+8eNpCEAAAkVHIJ1GC4NVdB8fGgwBCECgKAhgsoqim2kkBCAAgfQSSIfRwmClt0/IDQIQgAAE+kbAEddpDYRTmeKccgGYrJRRkRACEIAABJIJ9MdoYbCSSXIOAQhAAAKFRgCTVWg9SnsgAAEIZJFAX4wWBiuLHURREIAABCAwIAQwWQOCnUIhAAEIFA6B3hgtDFbh9DstgQAEIACB7glgsrpnwx0IQAACEEiRQCpGC4OVIkySQQACEIBAVgm4ruNUBrfzTlZWqVMYBCAAAQikRKAno4XBSgkhiSAAAQhAoEAIMJJVIB1JMyAAAQjkAoGujBYGKxd6hjpAAAIQgEA2CWCyskmbsiAAAQgUAYHORqumYWtjQzz69Jqa+Gl2rwgQ0EQIQAACEChyApisIv8A0HwIQAACmSBgZipWs+iUejVXIyPlj4+sWYzBygRo8oQABCAAgXQQcFpC7JOVDpDkAQEIQAACGSZQLRKbX7PopMpQZE7LPifzR70M8yZ7CEAAAhDIHQJ86eVOX1ATCEAAAoVKIDa0PB4q1MbRLghAAAIQgEBnApiszkS4hgAEIACBtBJwxYlWBlrDac2UzCAAAQhAAAI5TACTlcOdQ9UgAAEIFAIBx3FjTY2VjGQVQmfSBghAAAIFSMAR12kOlrBPVgH2LU2CAAQgUMgEYqEw0wULuYNpGwQgAAEI7EiAkawdeXAFAQhAAAJpJuC6EgsGXUay0syV7CAAAQhAIHcJYLJyt2+oGQQgAIECIeDEAgFMVoF0Js2AAAQgAIEUCGCyUoBEEghAAAIQ6DsBnesejUuIhS/6jpAnIQCBwiFQoU2Zoop00aSjNG5f1adVg5LuT9DzvVWp/D9aouk+k/SsnZ7f6bovl8foQ+NTeHCsphmRQrr+JjlQM0iFR2rlOOI0bY7wTlZqtEgFAQhAAAK5QMB1JBaIMZKVC31BHSAAgQElcISW/pDKTNSNXdTkcI3bR3WmKtlkParXF6oWqs5Q9RTMZH2yU4JzO1335dJMlpm9XYXJmmD0rhKl4f6RmocZ1pwNzJHP2a6hYhCAAAQKhYBOF3QSfN8USnfSDghAoK8E5uuD56nebs/AzNQ81WCVxXcX1uqNy1SW7gnV46rfqsyI/Z/qTZXlbenseIDqb6pNqotU9tyt7cfP6/Eg1ZdVQdW3VTZKllyPU/X6LNVLqu2q41V7qp5R+eFmPSlVlams3Emq/1RVqerar3+hx0aVHb+msvjvqH6kspG8G1QrVX7dv6rn16rGqV5Q2XN3qcw4vqj6tcry+4oqobLw36qTVc+qrI1Xqcx8JbdrkV7/XJXVwJdeVnFTGAQgAIEiJKALXzi8k1WEHU+TIQCBTgTMPPgGy249pFqpukQ1U7WrYIbHVdWrvqWaovp31V9Vm1XVKgsfqGw06wGVGQ4zJBeqbBrhp1Rnq8xImbn6huoi1UqVXw8zSlY3M3JmrGwE7peq5LC/Xpyo+pnqbtUQleVpryJZXcw0LlAtU81SbVBdoLpedY3qFZWZxetUft0P1fNDVJanGSxLa3UxNmeprN7GYLnqNFW5yto/TVWp+qFqsSqouljVoDLzZWYu64F3srKOnAIhAAEIFBcBRyQWc0L8Ua+4up3WQgACOxNYpVFmJCxEVN9TmVmwYMZgV2GMJjDjMEllxmGQyp77k+ph1WMq+93eDI0Zq22qElWrykaA7Fn7v9hGoOzazFpY1VU9Vmi8PdussrC17dDx0/KykSnTepWfl556wUzP+6omVVy1UmVhsKpW1aJyVcl1t3uWT0x1kcqeW6OytvxddbLKjNzdKgtWPzOUlo/Vo6L9+LIef6oyI2rP/kXVY3DFcYYFNls+aQt86aUNJRlBAAIQgEBXBFzdjNiJeV/sXd0mDgIQgECxELhcG/o7lZktMx9vqaaq9lL9TeWHzr/s2/0/q8yEfEUVVQ1XmeEwI/JZlY0WbVGZqfCft6MporpXtZtqnkr/9uWZFouvVh2v6qoeVsf1KjNCk1WPqfyQXIbF+df+/T/qyc0qM3p29O/fpOf/qzKjZcfkuj+v1zY6NVdlbVyk8p8zs/emykyhGUSLN6NnRu42lRlLK+e7KuP6T9WnVXuoLA0BAhCAAAQgUFgE7p56+hP3HHzKMYXVKloDAQhAoM8EypKetHMzPRb8YyozzWwUx0ax/LQ2iuMHPy75aIbKv7Z0na+7qoefn6X16+bH+Xn5R4u3NMnpzBCZLCTHW739eLuXXHe7thE6P313+SfHW3o/WN5m1PzQOW8/foejfk81/mXPWcn9ssP9vlwwktUXajwDAQhAAAIpE9BvyljcYXXBlIGREAIQKHQCNkLkh+Rzf9TGRqN2FWwKYHKwaXZ+8J9PPrb4N9uPna+7qof/SOe0Fp+ct5/Or79/baNRfki+F9dIkx+S625xNkLlB78cu07OIzk+Ob3layNdfuictx+f8WOyC8x4YRQAAQhAAALFR8B1dbog72QVX8fTYghAAAJ5QkD3c3QaQuyTlSfdRTUhAAEIQKCdgJosRrL4NEAAAhCAQPEQYCSrePqalkIAAhAYGAK6GbGTwGQNDHxKhQAEIACBgSCAyRoI6pQJAQhAoLgIRBMSSH7JubhaT2shAAEIQKDoCGCyiq7LaTAEIACBrBNgumDWkVMgBCAAAQikTEA3yqoLlSUvrJHyo90lxGR1R4Z4CEAAAhBIDwFXpws67JOVHpjkAgEIQAAC+UAAk5UPvUQdIQABCOQxAUecWFx4JyuPu5CqQwACEIBALwlgsnoJjOQQgAAEINBLAoxk9RIYySEAAQhAIN8JYLLyvQepPwQgAIEcJ+AG3Ggg4bDwRY73E9WDAAQgUKwE9JUsZ4/Iat7JKtYPAO2GAAQgkI8EHJFYQngnKx/7jjpDAAIQgEDfCDCS1TduPAUBCEAAAqkScJ2YsBlxqrRIBwEIQAACBUAAk1UAnUgTIAABCPSTwIX6/Ij2PPbS46f7md8Oj7uSiDkSCO0QyQUEIAABCECggAlgsgq4c2kaBCAAgRQJHKTpvtae9go9jkrxudSSeSNZTBdMDRapIAABCEAg6wR0Gdytr5byTlbWwVMgBCAAgcIm8ENt3gWqKaqPqH6rspGnH6sWqW5SDVJNUv1T9ZRqmiql4AZ0n6wES7inBItEEIAABCBQEAQYySqIbqQREIAABPpFYJ0+fbvqAdVPVE2qz6lsCuFRKlsZ8N9Vn1U9pjpBtUKVUtA/EEZdcVldMCVaJIIABCAAgUIggMkqhF6kDRCAAAT6T8BGrYaorm/P6lA9zlDdrZqoCqpuU31G9SdVmSq14CZ04QveyUoNFqkgAAEIQKAQCGCyCqEXaQMEIACB/hPYolk0qprbs9qgx3tVp6lsNOvnqrdVNqXwXdWXVCkF3X9EF75gumBKsEgEAQhAAAJZJ6DfUc56qUzrO1ms9pT1bqRACEAAAjlLQLez6gg36plNHzxcVaG6XDVHZe9i2cIYKZusgKv7ZAVY+EKZESAAAQhAoEgIYLKKpKNpJgQgAIFdEGjQ+2OS0thIlhkqm0JoI1xRlS16MVRVr4qpUgpuQEeyWPgiJVYkggAEIACBwiCAySqMfqQVEIAABNJBIN5FJts6xdV2ut7lpe6TFQ04ARa+2CUpEkAAAhCAQKEQ4J2sQulJ2gEBCEAgRwkEdJ8sXV2QP+rlaP9QLQhAAALFTkDfHXYOlIVpfScLk1XsnyraDwEIQCDDBFx9J0uLwGRlmDPZQwACEIBA7hDAZOVOX1ATCEAAAgVJwFYXFAeTVZCdS6MgAAEIQKBLApisLrEQCQEIQAACaSMQiMcc12EkK21AyQgCEIAABHKdACYr13uI+kEAAhDIcwKOBKL6ThYLX+R5P1J9CEAAAgVLQKdcvCbCO1kF28E0DAIQgEABEnB14QttFiNZBdi3NAkCEIAABLomwEhW11yIhQAEIACBNBFwXZ0uKEwXTBNOsoEABCAAgTwggMnKg06iihCAAATymoCtLsjCF3ndhVQeAhCAAAR6R4DpG73jRWoIQAACEOglgUBQ98ly2Serl9hIDgEIQAACGSTwtyknjgw6wTFtRbjOwVNOP/SuQDzhJmLrPvHyQxv7WzQmq78EeR4CEIAABHokYO9kObyT1SMjbkIAAhCAQHYJJNzI8EBAljq6OpOVHArKMnEDbtRxDtbLfpsspgtmtz8pDQIQgEDREUhIPKrvZLG6YNH1PA2GAAQgkLsEPvmvv7+hCwrevmMNnTs+ufyfr+4Y17crTFbfuPEUBCAAAQikSCCY0OmCjGSlSItkEIAABCCQLQKxuLPAdSVh5dlRJ15cka6yMVnpIkk+EIAABCDQJQFvCXeHd7K6hEMkBCAAAQgMGAEbzdLp7H/2KuC4d8x98QHdLis9AZOVHo7kAgEIQAAC3RBwQ/pOlss+Wd3gIRoCEIAABAaQQDyWWKDjWLqfY/zKdFYDk5VOmuQFAQhAAAI7EUgkovrlxT5ZO4EhAgIQgAAEBpzAJ165//VE3Dk7naNY1ihM1oB3LRWAAAQgUNgEAhKMuuKy8EVhdzOtgwAEIJC3BD7+8t//mu7KY7LSTZT8IAABCEBgBwKuLnzBEu47IOECAhCAAAQKnAAmq8A7mOZBAAIQGGgC8UQgJg7vZA10P1A+BCAAAQhkjwAmK3usKQkCEIBAURKIlDTrEu68k1WUnU+jIQABCBQpAUxWkXY8zYYABCCQLQLxuBMTVhfMFm7KgQAEIACBHCCAycqBTqAKEIAABAqZQJMbjjosfFHIXUzbIAABCECgEwFMVicgXEIAAhCAQHoJVLTWMl0wvUjJDQIQgAAEcpwAJivHO4jqQQACEMh3Ai0NCRa+yPdOpP4QgAAEINArApisXuEiMQQgAAEI9JbA1vdadTNiVhfsLTfSQwACEIBA/hII5W/VqTkEIAABCOQDgYtkWewedxTfN/nQWdQRAhCAQOETmKRNPFp1oGqsarBKt3OUOtVq1auqZ1Svq/ocLEMCBCAAAQhAIO0EquW40IGTpTQclpAjlVtaXXdcSbw10NqY2D6v5pFtaS+QDCEAAQhAAAJdEzAz9R+qz6rGq1IJKzTR/6luUK1N5YHkNEwXTKbBOQQgAAEIpI3A1IPKD42UVNYFnMqtjiOBSMB5zwlHVocrS+2viAQIQAACEIBApgnspgVcr3pHNV81XpUc7A9+0XZtT76h5xNUl6tqVNepbMQr5YDJShkVCSEAAQhAoDcEznzlH0td170r+Rm9fuTjy+9bnBzHOQQgAAEIQCADBM7WPN9UXaQqac9/nR5/qDpGNbRdb+vRNERlpmyO6meqjSoL9uzFKptGeIoqpYDJSgkTiSAAAQhAoC8EYm50vutKwn/Wcd2r/XOOEIAABCAAgQwQMH/zC9VtquHt+S/T4xZVo+rbqqdU/rT1m/TcZMHSPKr6qqq2/fp5PVrYU3Wod8YPCEAAAhCAwEATuPvQ0265Z+rp7t1TT3t2oOtC+RCAAAQgUNAEbJGlv6jcdtXr8b9UZryuVd2tshGrXQVLY2ntGQtfUJk5Sw4H6UW361t0eyM5B84hAAEIQAAC1ROnjxMJs5VZVQAAGglJREFUTnFcmeCIOy4QCOyr32Ma54x0xY2I60T0GNavtrBHy5GoI040EgxEJw0aMWx107aabbHWVxKJxNuuOKtdR/Sl4vjL1TXLVkMXAhCAAAQgkAYCN2sen2/Px75bzlAtb78232Pmqzehq2fMyNn0QRv96vweV0femKwOFJxAAAIQgIBP4FtjDhsRKUkcHxLnBHECR6h5UkPluGXBUGtpIBgpCYTKwoGAhANBCTsBcWxlC3044B3bvloS+l2WaJ8raPeaE3GJekpIayLWpNctTfGYznV39SnnbU26KC7xh1paA4//YO1im7JBgAAEIAABCKRK4FJN+OOkxD/S88uSrtNxWqmZ2EIal6ve7SlDTFZPdLgHAQhAoEgIVKs/io+febQapnnqeE5W4zO6PFjSPCRUMrg0FHbKAiEJqanKRIglEtKUiElzLOrqSNf2hnhrmdq2tXFxH4wl3D8HVy55SuuXyETZ5AkBCEAAAgVB4BBtxWKVLVKxQbVZZSvZHqiyRS3SEcZoJveozLjZe1sWZqlsSuK/7CI5YLKSaXAOAQhAoMgI6BTA2SEJ/pvOnzgnFAg6I8JlgypC4WB5MOyNTg0EDl2BUBrjMWmItcY3R5saYom4Te+4XUe5btGphU8PRJ0oEwIQgAAEcpaA+Rn7bjhSZX+Q+5jqZdURKjNF6QhTNJP7Vdeoftme4Uw9Pqx6QfWR9riOAyarAwUnEIAABIqDQPXo6eVSEvxcMCDfCgYCQ4eHy8qHh0tDkaBNM8+90KKGa2u0ObYl2tQYTyRq4wn5gbTG/1i9bpmtEkWAAAQgAIHiJjBXm39XO4Jf6PHLacZxouZ3p+p21YVJeV+l599pv/64Hm2hjI6AyepAwQkEIACBwiZQvfuUkYHy0vm6FtL5laGSRFVkUIUe86rRdbFW2dTSUK/HgI543ew2tlxZveHljXnVCCoLAQhAAALpJGBLrB+uqlNNVNlUwXSFCzQjewfrWdUcVVTlhwo9WakaoXpSdayqI2CyOlBwAgEIQKAwCVw2cfqQQRL8tv6Hf8mIknKnKlJeWqILVuRzaNUFNDa1NDZvaW3UyYVyXYPEr76mZtm2fG4TdYcABCAAgV4TmKxPvNL+1Et6PE9lUwX7G8wj2UiVLdu+UnWYapMqOUzTC1th0N4Hs2DvgL3lnekPTJZPgiMEIACBAiNQbYv9jZ95iS61vmBIKBIaVVZRlu/mqnMXmdla31TftC3WoutnJOa7K5dcp+1mkYzOoLiGAAQgUJgErtRmzU9q2vt6bgtU9Od7wKZ43Kw6V9Wgsne9Ohu3gMatVe2h8oOZso66YLJ8LBwhAAEIFBCB6rEzDgqGA7eVBsPj9yobXJGr71ulC7m9t7WqaXt9czy6sjXmnr1g9ZJX05U3+UAAAhCAQM4SeEZrZiboDZVN7Runsnen+hqG6YP2btUxKp0oIWep/Pe99HSHcLZerVb9r2p/la1uaNMWvYDJ8klwhAAEIFAABKpt9GrCYVfqflWXji6tjIwoKdXT4viv3lYl3NLanFjXXNei+3P9xF2x+HLl0Z+/ZhbAJ4ImQAACEChYAiFtmS2AFFb9TpW8KIVe9jpM0CceUNm0PwuXqxZ4Zz3/uEFv/4eqVWXvaXnvbRXHN6+2lgABCECg0AnYBsLlEece3TD4kPHlQypso+BiDLbh8crGbfW60fHyxhb3TDY2LsZPAW2GAASKgMC+2sa32tt5vh5til9fg71z9XfVyPYM7tDjvPbzXR3+XRPc1J7oAD3aqJrYfEICBCAAAQjkOYHqCTMOK4/I6yNKymbsM2hY0Ros60Yzl8bAWBgTY5Pn3Uv1IQABCEBgZwJ7JkWtSDrv7aktAb9Q5RusF/X886pUQ3LZ9j6YFzBZPgmOEIAABPKUwOXjZn40GAg+ulf5kKoxZZWRYpke2FN3GQNjYUyMjTHqKT33IAABCEAg7whUJtW4Num8N6ef0sR/VZW1P7RBj2eqGtuvUzkkl91RJ0xWKuhIAwEIQCBHCegozRnhUODevcuHVgwJl+ZoLQeuWsbE2Bij6vHTjhi4mlAyBCAAAQikmUAkKT97H6ovwaYZ+n7I8viEak0vM0ou294P84KfqX/NEQIQgAAE8oRA9V7TpzlO4B6dGlc+KM82Fc4mYmOjI1rlTiD03OUTZpyQzbIpCwIQgAAEMkbA9q16ol29GXlKrtDD7Re2SJItXmGbDvc2WNl+PTb6D7PwhU+CIwQgAIE8IjB/3LTpoVBoqRosqcgzgxXZbZi0bt0mbnznhf8CkRIJhIISa2hKe280xFrlnYatjdFY7JgFq19YlvYCyBACEIAABPKRwGFa6TrV6+msfHEuPZVOguQFAQhAIMsEqidOHxfSURldQbB0cDh5tkTvK2KmZu/PzpW9PzNXRn/0SAlEwrL97ZU9ZhQIh6RsVJVE62yPxp5D5d7j5KCvXSBjz/iomqeQbH9rhcy59wbZvPRfXpmlargszg8Tzz1dJsw7VdY9/IwflbajbcSsKy+G6+LReccO2+O2hVvXb0tb5mQEAQhAAAL5SmCtVnxzuivPdMF0EyU/CEAAAhkkcKFMV4sTvH9UaWXF0P6+g6WLQxx5/QIZN/cE2bToJdn66tsy8ezTd6i9o8aocxiy/94y+6Zrdoh2dPRJAjt/pUy98qti9zY8uUQG7TX6w2dsT6uXXpP6Vfbd1hbMvHUOXZXfOU1vru0dLWNnDI1lb54lLQQgAAEIQCBVAjt/o6X6JOkgAAEIQCDrBMZMCHyzNBgeX1VS1u//v6sOO0TMMD165kXSvHGL15Z3/9i2sf2Es0+TAy7+rARLI7LxuRdlyaXfl0Q05qU58obvS1BHwE555g558rOXyn7nf0pGnzBbbDNge/6NX9/SwSVUXirxllZZc99jkmj19mfsuGcjZ7WvvyMtW2rliF9fIRXjRntpNzy1REQN4PSrvy6jPjJL4s0t8tKVv5D1jz7X8Wx/ToxdbbR5wp4T3MtkhVzVn7x4FgIQgAAEINAVgZ3/7NhVKuIgAAEIQGDACcyfOP3ggBP4li7iUJGOZdorJo6V+hVrPIN16OWXyOybr5FZv1kg4SGVMvnSC2TZd34sD518vgw9cB/PRPkAnvvS5dK8Zas8cOw5MmjsKNn96Bny6NyLZPGXF8i+F3xKSnffzU8qr/3s9zLquCNkzn03yugTZ3fE24mNcDnBoEz49Kme0frnnM/JB8vbpsTvPnuGjDxyqjx21pdk9b2PyKQLz9nh2f5cGDudajlIFw35dvWEaVP6kxfPQgACEIAABLoigMnqigpxEIAABHKQQERCN40prYzYu0XpCNHt9RKpGq5GJyDv/ukeWXXXQzJi2mQpHz3SBpJkwxOLpWXTB1L3ziqJDB/aUaQbi4skXHFjMakYO1pHo96VpvWbvCmHligyfEhH2vefWCQPn/oFWf/4czLtqq9JqKK8455/UjZqpGxevFxaPqiVjc+0rUdh5i1cWSGH//xy2ePYw/Veel+fMobGMuSE/9evB0cIQAACEIBAughgstJFknwgAAEIZJBA9cTDTgsFApNGRMrS9v/25iUvS6i8XCZ/7QvS9P4maVzXtvJs8+at3vtVu82cIiXDhogtXtG04cN3gt1EQs3SIAmWl0nz5g9k8L4TvHQjph8kOmdQmtWYWbCRqnFnnuCZsfcXLvJWDewKUcvWWhl2yP7e1MTddAqjBZu+aKbr6fMvk8c+8Z+y/KpfdvVov+KMpTE1tv3KiIchAAEIQAACnQj0e05/p/y4hAAEIACBDBDQiXVXjyqtqExn1mZkln7jh3LwZRfpghenee9UbVn2ijd6Ze9WzdL3pNQzycanl8r6xz7cOqR+1Tp9T6pZTnnqdln4qYul7t1VctJDv5eELsn+xm/+JC1m0rzgeCsXHvq9S3S59ri8ffOdEqtv9MrxbmveFlbd+aDMuv4qOfXZO6R1W503qrVeTdleZ50kJ/7z996za//5pCy/Mv1Gy5iubtx+tVbjPq8y/IAABCAAAQikgQD7ZKUBIllAAAIQyCQB2xOrNBR+YvLgKn2PKDP/bduolLokNU8fblwfKAmLoysG2sITnYNNMbTVAP30oUFl3qIV3lTCTonDgysk3tTcsXCGjXB56Ww1QnNxJm1XsEwXyWjU/bEsXkfLLHj10qMX78Wk94ct1vHq9k0NzbHoseydlV625AYBCECgmAmkbdpJMUOk7RCAAAQySSAcCl9cFRlUmimDZXU3E+MbJr8tthpgVwbL7ttGwsnpbfPgrgyWpbV3v/yVCb1n7Z0uC2akzGBZ0GOHkWo3WBbt1cuMV4aCMTW2JcHQJRkqgmwhAAEIQKAICWCyirDTaTIEIJA/BKp1XEfHrs4aWlKantUu8qfpWaupx9ZxPmGss1YoBUEAAhCAQEET4AuloLuXxkEAAvlOID5x5vSg47iRNK0omO88MlF/Y2uMjXUm8idPCEAAAhAoPgKYrOLrc1oMAQjkEYGgK8cOCenOv/ka9P0qWyY+14MxNta5Xk/qBwEIQAAC+UEAk5Uf/UQtIQCBIiWgS4zPLguFS7PZ/P2+8GmZ9MVzO4o84JLPSeXEcR3XvTmp2Gu0fPTu3/bmkQFJW66Mg4HA0QNSOIVCAAIQgEDBEcBkFVyX0iAIQKCgCLhyYFkwu7ttjJpzpEy68GwZeVTb7DnbDLg0hdEoJ9RWT1t50FshMLkjdIEJW41wh6CjXF7a5Miu0iXfz9B5qTJ2XDkgQ9mTLQQgAAEIFBmBTt94RdZ6mgsBCEAgxwm44o4MO9n/e1jD2vflwK98XjY+92IHofHzTpHdZhyse2tdIxP/7QwZOnlfefP62+Qjd/3G24C4dLdhYpsOV82aqs84suTrV3ubHIfKInLiAzdJRO+v+PP98sq1v/Oe3/9Ln9ENikNSc+u98trPfy8nPXqLBCNhb1+sB479cCStowIZPDHGxjqDRZA1BCAAAQgUEYHsf3MXEVyaCgEIQKC/BHSB8/LgAJist274s5TtXiXjzpzT0QQnqFsi6x5XFmz/LDNI3kiULr/+rx9cL29cf6tUHX6IPHvRd2XdI0/Lnqcc56W1vaiWX/1ref6SK2SCbno8aNxomXzpBbL0sh/J0m/+SPY57xNSMlT3WXYTsub+x+Xxef/tPZfNH8bYWGezTMqCAAQgAIHCJcBIVuH2LS2DAAQKgIAalFBAp9BlO7Rs3Sbv3Hyn7K/vZiXvceXoCFXnEG+JyvtPLLKRIGlYu0FqX3lL6qYeKMMO3t9LavtpbXhyibfhsO1LVTlxrO497Mjkr55vexBL/ep1OpUw7KVdc88j0rxhc+ciMn5tjI11xguiAAhAAAIQKAoCfKEURTfTSAhAIF8JqBmJJVw3PBBG612dxjf+UydL+WidRadmKNHS6o1ChSrKpeqIqRJraNwRq7+xsMW27zFspzYFsOqIQ3WgSm2YbjRcv/I9MzSyfMF18sFLr3t5Nm/6wJIOWFDGZvxiA1YBCoYABCAAgYIiwHTBgupOGgMBCBQaAfU2jXGdRpf1oKbDTNWrP7vZM0Q2mrXx2WUSHlIhpzx5u/c+lt5QM5XkpnaqZNt9m1o489pvyqzfXCnv/ukeNVlr5e2b7pAjf/t9OfmJ2+SI677nPWnGa6CCMTbWA1U+5UIAAhCAQGER0O8UAgQgAAEI5CqBqyYe/tbeFcP2LQ+2TafLRj3tPSs3nmTsbE6fb4D0PFReqqNYTW0rCOrIlL2n5cbiXtU6nrVnTHZf8/Pe59J3uuJNzR1NsNUGg2WlEt1e3/ZsUj4dibJ00hiPyrv1W9/+bs2i/bJUJMVAAAIQgEABE2Akq4A7l6ZBAAIFQMCR15ri2Z3FtoPBMoS+wWo/9wyWnauB8qLaDZZ37psze8a/r3GJ1ugOBsvS2uiYb7A652PX2QzNyth15PVslklZEIAABCBQuAQwWYXbt7QMAhAoAAKxROLpplj0w+GfAmhTLjahURnHE4mncrFu1AkCEIAABPKPACYr//qMGkMAAkVEIO7IE9ti+nIUIaMEjLGxzmghZA4BCEAAAkVDAJNVNF1NQyEAgXwkEKxZsizuuk5Lou2dp3xsQ67X2dgaY2Od63WlfhCAAAQgkB8E2naVzI+6UksIQAACRUdgob4RdfywPfcLOYGDK0IlufOHMV3UwjYWHnvq8bLxmTZvstdZJ8mkC8+RPY47XBp076uWD2q9/ho39wTZ94J5MvqE2VL76tsSrWvIqX7c0tIUb4i1/vl7tWvvyqmKURkIQAACEMhbArnzhZ23CKk4BCAAgcwSiMaiv9zU0tA8kEucd27hjB9dJpMvvUBGHjW949ao42fJ+sefk8iIoXLwZRd58WPPnONtOrzp+Re9JeDdgViOvqOGO58YU2PbGo9dt/NdYiAAAQhAAAJ9I4DJ6hs3noIABCCQNQILVr+wTNfxq9H3hrJW5q4KeucPf5MlX796h2TPX1wta+59VBreW98RP+60j8iKv9wvW19+U9Y/+qw0rd/UcS8XToypsTXGuVAf6gABCEAAAoVBAJNVGP1IKyAAgQInEBf32+ub6+typZm1r7y1415aWrGJ554hH1t4q+w190TZ8PRSr6plo6pkP50qOEM3Iz7xoT/IiGmTc6UJXj2MqbHNqUpRGQhAAAIQyHsCmKy870IaAAEIFAOB6prF9+ly7m/q+0NJuwTnVstX/e1BeeKcr8i7t9wjk754rgRLI+ImXHnhuz+Rx+Z+Uba8+OoO0wsHuvbG0pga24GuC+VDAAIQgEBhEcBkFVZ/0hoIQKCACbRI7Py1zXUtrTm40mCwvEyGTTlAmjZslm1vvCvBkrDXE41rN3ijVwG9jgwbIrHGppzoIWNoLGNu9IKcqBCVgAAEIACBgiLgFFRraAwEIACBAidwxYSZ8weFSr6xz6BhFY6u8DdQ4cjfXS27TT/IK95NJOSp874uM3/8Hc9IWeTbN98pb15/q1TNmiozdapgMFIi295cIfbeVmvt9oGqdlt9dbGLtxu2NjTFWn94+YolVw1oZSgcAhCAAAQKksDAfUMXJE4aBQEIQCCzBC6U6eFxE4Mv7F5auf/ISHkos6X1PvfwkEqJNTSKG/twXy8nFPSmDsbqG3ufYQae2NjSGNvQXPfG6pr4tBtkWTQDRZAlBCAAAQgUOQGmCxb5B4DmQwAC+UXATEFM4qeub66r3xZtzrnKR7fV7WCwrIJmuHLFYNUqM2NnDDFYOffxoUIQgAAECoYAJqtgupKGQAACxUKgumbZ6mgsNmdl47ZG3US3WJrd73bWKytlJsbOGPY7QzKAAAQgAAEIdEMAk9UNGKIhAAEI5DIB29cp5ibm6rtFsi2aO/tn5SqzxlhU3lFWbjw+nT2xcrWXqBcEIACBwiGAySqcvqQlEIBAkRG4csXSh91EbNYqRrR67Hkb7VOD1ei6iTOrVy17ocfE3IQABCAAAQikgUAwDXmQBQQgAAEIDBCBhbXr3zu6cvSibfHms0qDoRLVANUkN4u199ZWNNY2RGPumVesWvpgbtaSWkEAAhCAQKERYHXBQutR2gMBCBQlgfkTZ84sEef+ESXlg0eXVkQGcnn3XOgAV5dpX9dc37KltXF7q7inLqhZsiQX6kUdIAABCECgOAhgsoqjn2klBCBQBAS+NeawEYMizt06mnXo+PIhFeFAcU5WiOpGw7rARX1zPPZSQ4s79wdrF28pgu6niRCAAAQgkEMEivMbOIc6gKpAAAIQSBeBp+vWNh2zde0fokNGlW9pbZoZdALBsmBIB7WK4+9pNnq1pbU5odMDm1sT8Z8lViw+76q6tbmxOVe6Opl8IAABCEAgLwgUxzdvXnQFlYQABCCQPgLzx82cXBJybi8NhsePKxtcUejvaumolaxu2q6jV9GV8WjinOo1S19JH01yggAEIAABCPSOACard7xIDQEIQCBvCFSLBJzxMy8JBAILhoQioVFlFWUlBTaFUEesZH1TfdO2WEssnohfLiuX/kLbncibTqKiEIAABCBQkAQwWQXZrTQKAhCAwIcELps4fcggCX5b/8O/RBfGcKoi5aX5brbMXG1qaWzWhS10kqBc1yDxq6+pWbbtw1ZzBgEIQAACEBg4ApisgWNPyRCAAASySqB69ykjA+Wl88WR8ytDJYmqyKAKPWa1Dv0trE73vNrU0lCvx4C4clOisXlB9YaXN/Y3X56HAAQgAAEIpJMAJiudNMkLAhCAQB4QqB49vVxKgp8LBuRbwUBg6PBwWfnwcGkokqN7bLXo+1YfRJtjH0SbGuOJRG08IT+Q1vgfq9ctY1GLPPi8UUUIQAACxUgAk1WMvU6bIQABCLQTmD9uxlGRUOAzOuXunFAg6IwIlw2qCIWD5cGwDNSqhLZKYGM8KvWxaHxLtKkhloi7+mV1W0ssccuC1UufofMgAAEIQAACuU4Ak5XrPUT9IAABCGSBQLUukhEfP/PosBOYpyu+n+yKO2ZQMNysC2ZUloZCTlkgLKFAICM1iSUS0pSISnMs5uoCFnUN8WipI85a9VoPRN3EX4Irlzyl9WMxi4zQJ1MIQAACEMgEAUxWJqiSJwQgAIE8J1C95+ThiZKy48MSOEENzxFquvbTo1sWDLdGAkFbOKM0rKbLNjxWY+aNepkFC6hD0yuv9Ql9aSqhTsnckY1OqWES2yg4qqZKF65oblHpiJW+FObqU85bWsbzUUk8HGhterz6vVc/yHOEVB8CEIAABIqYACariDufpkMAAhDoDYHvjJ45NliamBJwnQlqpPbSzY73cR13L1ecKjVKpeqVImqUwuqtwnq0TZBb1TxF1Zu1iDjNjribHNdZFXcT76gBW5Vw3BVqzP5VXbNsdW/qQVoIQAACEIBArhP4fzE8KTme/53cAAAAAElFTkSuQmCC;" vertex="1" parent="1">
          <mxGeometry x="90" y="40.61" width="1766.64" height="919.39" as="geometry" />
        </mxCell>
      </root>
    </mxGraphModel>
  </diagram>
</mxfile>
